<?xml version="1.0" standalone="no"?>
<!DOCTYPE svg PUBLIC "-//W3C//DTD SVG 20010904//EN"
 "http://www.w3.org/TR/2001/REC-SVG-20010904/DTD/svg10.dtd">
<svg version="1.0" xmlns="http://www.w3.org/2000/svg"
 width="550.000000pt" height="454.000000pt" viewBox="0 0 550.000000 454.000000"
 preserveAspectRatio="xMidYMid meet">

<g transform="translate(0.000000,454.000000) scale(0.100000,-0.100000)"
fill="#000000" stroke="none">
<path d="M2600 4214 c0 -3 7 -12 15 -20 16 -17 18 -14 9 10 -6 15 -24 23 -24
10z"/>
<path d="M2756 4204 c-9 -24 -7 -27 9 -10 17 17 19 26 6 26 -5 0 -12 -7 -15
-16z"/>
<path d="M2916 4201 c-4 -7 -5 -15 -2 -18 9 -9 19 4 14 18 -4 11 -6 11 -12 0z"/>
<path d="M2440 4184 c0 -8 5 -12 10 -9 6 3 10 10 10 16 0 5 -4 9 -10 9 -5 0
-10 -7 -10 -16z"/>
<path d="M2782 4155 c0 -16 2 -22 5 -12 2 9 2 23 0 30 -3 6 -5 -1 -5 -18z"/>
<path d="M3066 4164 c-3 -8 -2 -12 4 -9 5 3 11 -18 13 -47 l3 -53 2 63 c2 58
-9 81 -22 46z"/>
<path d="M2326 4162 c-3 -5 4 -18 16 -28 21 -19 21 -19 8 6 -17 33 -17 33 -24
22z"/>
<path d="M2631 4144 c0 -11 3 -14 6 -6 3 7 2 16 -1 19 -3 4 -6 -2 -5 -13z"/>
<path d="M2442 4130 c0 -14 2 -19 5 -12 2 6 2 18 0 25 -3 6 -5 1 -5 -13z"/>
<path d="M3173 4127 c-9 -19 -8 -24 3 -24 8 0 14 10 14 24 0 13 -2 23 -3 23
-2 0 -9 -10 -14 -23z"/>
<path d="M2221 4109 c0 -19 3 -28 6 -21 2 6 9 9 15 6 5 -4 4 4 -2 17 -19 36
-20 35 -19 -2z"/>
<path d="M2741 4124 c0 -11 3 -14 6 -6 3 7 2 16 -1 19 -3 4 -6 -2 -5 -13z"/>
<path d="M2593 4075 c0 -33 2 -45 4 -27 2 18 2 45 0 60 -2 15 -4 0 -4 -33z"/>
<path d="M3272 4094 c-7 -14 -8 -23 -3 -20 5 4 12 0 14 -6 3 -7 6 2 6 20 1 39
-2 40 -17 6z"/>
<path d="M2140 4106 c-1 -23 24 -86 36 -90 8 -3 14 -2 14 2 -1 12 -49 98 -50
88z"/>
<path d="M2641 4094 c0 -11 3 -14 6 -6 3 7 2 16 -1 19 -3 4 -6 -2 -5 -13z"/>
<path d="M2099 4068 c5 -13 19 -47 30 -77 33 -82 16 -73 -25 13 -42 88 -57 98
-18 12 35 -76 23 -84 -15 -10 -39 76 -40 62 -1 -23 39 -85 34 -104 -7 -27 -55
102 -65 103 -17 1 26 -53 45 -100 42 -103 -3 -3 -30 35 -59 85 -29 49 -55 88
-57 86 -2 -2 17 -43 43 -90 26 -48 45 -89 42 -92 -3 -3 -31 34 -62 81 -31 47
-59 86 -61 86 -3 0 14 -34 37 -75 22 -41 38 -75 35 -75 -3 0 -26 29 -51 65
-51 70 -65 83 -40 35 30 -57 72 -119 78 -114 7 7 76 -87 77 -104 0 -9 8 -8 33
4 17 9 33 18 35 19 2 2 -4 17 -13 35 -22 42 -11 52 12 11 20 -34 50 -38 45 -6
-3 16 -1 18 9 8 7 -7 18 -13 24 -13 6 0 5 3 -2 8 -16 10 -54 115 -44 122 9 6
-59 160 -71 160 -4 0 -4 -10 1 -22z m21 -297 c-1 -13 -4 -12 -15 3 -8 11 -15
27 -15 35 1 13 4 12 15 -3 8 -11 15 -27 15 -35z m-39 17 c21 -26 24 -38 9 -38
-5 0 -16 14 -25 30 -18 35 -11 39 16 8z"/>
<path d="M2792 4060 c0 -19 2 -27 5 -17 2 9 2 25 0 35 -3 9 -5 1 -5 -18z"/>
<path d="M3330 4043 c-49 -107 -51 -113 -38 -111 12 3 72 148 64 156 -2 2 -14
-18 -26 -45z"/>
<path d="M2923 4005 c0 -44 2 -61 4 -37 2 23 2 59 0 80 -2 20 -4 1 -4 -43z"/>
<path d="M2452 4045 c0 -16 2 -22 5 -12 2 9 2 23 0 30 -3 6 -5 -1 -5 -18z"/>
<path d="M2731 4054 c0 -11 3 -14 6 -6 3 7 2 16 -1 19 -3 4 -6 -2 -5 -13z"/>
<path d="M2342 4040 c0 -14 2 -19 5 -12 2 6 2 18 0 25 -3 6 -5 1 -5 -13z"/>
<path d="M2651 4044 c0 -11 3 -14 6 -6 3 7 2 16 -1 19 -3 4 -6 -2 -5 -13z"/>
<path d="M3356 4004 c-15 -32 -28 -74 -30 -94 -5 -42 -35 -120 -47 -120 -14 0
-11 18 15 69 19 36 21 48 11 48 -8 0 -23 -25 -34 -58 -19 -58 -19 -58 1 -64
22 -8 20 -9 42 30 16 28 17 28 13 5 -3 -14 -7 -32 -10 -40 -4 -11 17 -28 74
-62 44 -26 75 -40 69 -32 -10 11 -7 21 13 47 15 20 22 39 18 46 -5 8 -16 -4
-32 -33 -13 -26 -27 -42 -32 -37 -11 11 51 108 72 114 9 3 33 37 55 77 46 86
35 86 -20 0 -52 -80 -65 -77 -20 5 39 71 49 101 15 46 -25 -41 -36 -34 -14 9
9 18 14 34 12 36 -2 3 -24 -29 -47 -71 -24 -41 -46 -73 -48 -70 -3 2 12 39 32
81 20 42 35 78 33 80 -2 2 -25 -35 -52 -84 -56 -101 -53 -97 -60 -90 -3 3 13
44 36 92 22 48 39 90 36 92 -2 2 -24 -35 -48 -82 -24 -48 -45 -82 -47 -76 -1
5 13 49 32 98 20 48 34 89 32 91 -2 2 -19 -28 -37 -68 -38 -83 -49 -80 -19 6
11 32 18 60 16 62 -2 2 -16 -22 -30 -53z m136 -106 c-7 -7 -12 -8 -12 -2 0 6
3 14 7 17 3 4 9 5 12 2 2 -3 -1 -11 -7 -17z m-139 -108 c-6 -22 -23 -38 -23
-21 0 17 12 41 20 41 5 0 6 -9 3 -20z m33 -7 c-4 -9 -2 -20 5 -23 8 -6 8 -9 0
-14 -6 -4 -11 -3 -11 3 0 6 -7 8 -15 4 -13 -5 -14 -2 -4 21 13 28 35 37 25 9z
m27 -48 c-3 -9 -8 -14 -10 -11 -3 3 -2 9 2 15 9 16 15 13 8 -4z"/>
<path d="M3271 4034 c0 -11 3 -14 6 -6 3 7 2 16 -1 19 -3 4 -6 -2 -5 -13z"/>
<path d="M2270 4035 c0 -5 5 -17 10 -25 5 -8 10 -10 10 -5 0 6 -5 17 -10 25
-5 8 -10 11 -10 5z"/>
<path d="M2241 4014 c0 -11 3 -14 6 -6 3 7 2 16 -1 19 -3 4 -6 -2 -5 -13z"/>
<path d="M3072 4010 c0 -14 2 -19 5 -12 2 6 2 18 0 25 -3 6 -5 1 -5 -13z"/>
<path d="M3162 3990 c0 -14 2 -19 5 -12 2 6 2 18 0 25 -3 6 -5 1 -5 -13z"/>
<path d="M2351 3984 c0 -11 3 -14 6 -6 3 7 2 16 -1 19 -3 4 -6 -2 -5 -13z"/>
<path d="M2200 3986 c0 -11 30 -66 36 -66 2 0 -3 15 -12 33 -19 36 -24 44 -24
33z"/>
<path d="M2801 3974 c0 -11 3 -14 6 -6 3 7 2 16 -1 19 -3 4 -6 -2 -5 -13z"/>
<path d="M1870 3966 c0 -10 90 -166 96 -166 2 0 0 7 -3 17 -11 28 11 7 47 -46
46 -67 59 -65 20 2 -16 28 -34 52 -40 52 -6 0 -36 34 -66 75 -29 41 -54 71
-54 66z"/>
<path d="M3206 3955 c-9 -26 -7 -32 5 -12 6 10 9 21 6 23 -2 3 -7 -2 -11 -11z"/>
<path d="M2461 3930 c-2 -33 -2 -34 -16 -16 -8 11 -15 16 -15 10 1 -18 28 -44
46 -44 12 0 15 3 7 8 -6 4 -13 23 -16 42 l-4 35 -2 -35z"/>
<path d="M3060 3908 c-4 -32 -1 -48 6 -48 7 0 14 9 17 20 3 11 1 18 -3 15 -5
-3 -10 9 -12 27 -3 28 -4 26 -8 -14z"/>
<path d="M2362 3912 c-1 -18 -6 -31 -11 -28 -5 4 -7 -2 -4 -12 3 -15 11 -18
31 -13 18 3 21 6 10 9 -11 2 -18 16 -21 40 l-4 37 -1 -33z"/>
<path d="M3241 3924 c0 -11 3 -14 6 -6 3 7 2 16 -1 19 -3 4 -6 -2 -5 -13z"/>
<path d="M3605 3926 c-6 -8 -21 -29 -34 -47 -14 -18 -20 -29 -13 -25 16 10 15
1 -4 -37 -28 -56 1 -15 40 56 20 37 33 67 29 67 -4 0 -13 -6 -18 -14z"/>
<path d="M1810 3909 c7 -11 14 -18 18 -15 3 4 17 -4 31 -16 14 -13 10 -6 -8
15 -38 41 -58 49 -41 16z"/>
<path d="M2198 3912 c-5 -16 19 -80 37 -100 1 -1 15 3 32 10 31 13 33 40 4 46
-12 3 -12 0 -2 -12 10 -12 9 -17 -9 -26 -15 -8 -21 -8 -25 2 -2 7 -10 33 -18
57 -11 35 -15 39 -19 23z"/>
<path d="M2690 3920 c-13 -8 -12 -10 3 -10 9 0 17 5 17 10 0 12 -1 12 -20 0z"/>
<path d="M2556 3908 c3 -4 30 -8 61 -8 31 0 54 2 52 4 -8 8 -118 12 -113 4z"/>
<path d="M2790 3910 c-20 -6 -15 -8 25 -9 36 0 46 2 35 9 -17 11 -25 11 -60 0z"/>
<path d="M3266 3903 c-6 -14 -5 -15 5 -6 7 7 10 15 7 18 -3 3 -9 -2 -12 -12z"/>
<path d="M2240 3901 c0 -6 4 -13 10 -16 6 -3 7 1 4 9 -7 18 -14 21 -14 7z"/>
<path d="M2915 3900 c-18 -8 -17 -9 8 -9 15 -1 27 4 27 9 0 12 -8 12 -35 0z"/>
<path d="M2518 3893 c6 -2 18 -2 25 0 6 3 1 5 -13 5 -14 0 -19 -2 -12 -5z"/>
<path d="M2968 3883 c7 -3 16 -2 19 1 4 3 -2 6 -13 5 -11 0 -14 -3 -6 -6z"/>
<path d="M3645 3848 c-24 -25 -27 -32 -9 -15 17 15 32 25 35 23 3 -3 10 4 17
14 21 34 -2 22 -43 -22z"/>
<path d="M3160 3865 c-7 -8 -20 -15 -29 -15 -9 -1 -1 -7 18 -15 38 -17 54 -19
28 -4 -13 8 -15 14 -7 30 13 23 7 25 -10 4z"/>
<path d="M1720 3864 c0 -17 17 -36 24 -26 3 5 -1 15 -9 22 -8 7 -15 9 -15 4z"/>
<path d="M1849 3845 c5 -11 17 -29 26 -40 l16 -20 -10 20 c-5 11 -17 29 -26
40 l-16 20 10 -20z"/>
<path d="M3220 3840 c0 -11 -6 -20 -12 -20 -9 0 -8 -4 2 -10 19 -13 33 -13 25
0 -3 5 -1 19 5 30 9 16 8 20 -5 20 -8 0 -15 -9 -15 -20z"/>
<path d="M1905 3820 c10 -11 20 -20 23 -20 3 0 -3 9 -13 20 -10 11 -20 20 -23
20 -3 0 3 -9 13 -20z"/>
<path d="M2718 3833 c18 -4 23 -10 20 -31 -2 -21 -8 -27 -25 -26 -21 1 -23 -4
-21 -40 1 -37 2 -38 5 -8 5 39 18 41 37 5 8 -16 15 -24 16 -20 0 5 -5 17 -11
28 -7 15 -7 24 1 34 20 24 8 60 -20 61 -23 1 -23 1 -2 -3z"/>
<path d="M2796 3808 c-10 -64 -12 -107 -4 -102 4 3 8 25 8 50 0 24 5 44 10 44
13 0 13 27 1 35 -6 3 -12 -9 -15 -27z"/>
<path d="M1790 3805 c13 -14 26 -25 28 -25 3 0 -5 11 -18 25 -13 14 -26 25
-28 25 -3 0 5 -11 18 -25z"/>
<path d="M2567 3823 c-9 -8 -9 -70 -1 -100 11 -41 60 -39 70 3 3 13 1 36 -5
51 -10 26 -10 24 -5 -13 4 -30 1 -44 -11 -54 -15 -12 -19 -12 -31 5 -18 24
-19 102 -1 108 6 3 7 6 1 6 -6 1 -14 -2 -17 -6z"/>
<path d="M2605 3820 c3 -5 8 -10 11 -10 2 0 4 5 4 10 0 6 -5 10 -11 10 -5 0
-7 -4 -4 -10z"/>
<path d="M2850 3815 c0 -7 -8 -18 -17 -24 -15 -8 -16 -12 -5 -22 10 -11 12
-10 12 3 0 9 5 20 11 24 8 4 10 -9 8 -45 -2 -28 -1 -51 4 -51 4 0 7 29 7 65 0
37 -4 65 -10 65 -5 0 -10 -7 -10 -15z"/>
<path d="M2488 3813 c7 -3 16 -2 19 1 4 3 -2 6 -13 5 -11 0 -14 -3 -6 -6z"/>
<path d="M2940 3796 c-5 -14 -19 -45 -30 -68 -18 -37 -18 -40 -3 -20 21 25 49
22 56 -6 3 -10 5 11 6 45 1 66 -13 90 -29 49z m16 -64 c-4 -3 -11 -1 -17 5 -8
8 -7 18 3 34 l13 24 3 -28 c2 -16 1 -31 -2 -35z"/>
<path d="M3640 3800 c-6 -11 -8 -20 -6 -20 3 0 10 9 16 20 6 11 8 20 6 20 -3
0 -10 -9 -16 -20z"/>
<path d="M3670 3723 l-95 -98 90 88 c80 77 118 107 100 77 -3 -5 -4 -10 -1
-10 3 0 10 9 16 20 25 47 -20 15 -110 -77z"/>
<path d="M2443 3797 c2 -7 10 -38 17 -70 6 -31 13 -57 15 -57 6 0 -2 74 -10
93 -4 9 -5 24 -1 32 3 9 0 15 -10 15 -9 0 -14 -6 -11 -13z"/>
<path d="M1650 3785 c0 -9 5 -13 11 -10 6 4 22 -4 37 -16 l27 -24 -20 23 c-29
34 -55 47 -55 27z"/>
<path d="M3574 3768 l-29 -33 33 29 c17 17 32 31 32 33 0 8 -8 1 -36 -29z"/>
<path d="M1970 3744 c25 -28 48 -49 52 -47 6 3 -40 93 -48 93 -3 0 0 -9 6 -19
18 -34 11 -36 -22 -5 -21 18 -16 10 12 -22z"/>
<path d="M2381 3759 c7 -19 12 -46 13 -61 1 -26 26 -65 26 -41 0 17 -33 117
-42 127 -4 5 -3 -6 3 -25z"/>
<path d="M3056 3729 c-9 -34 -15 -63 -13 -66 2 -2 12 23 21 56 9 33 22 62 29
64 7 4 6 6 -4 6 -11 1 -21 -17 -33 -60z"/>
<path d="M1830 3766 c0 -2 8 -10 18 -17 15 -13 16 -12 3 4 -13 16 -21 21 -21
13z"/>
<path d="M2321 3755 c0 -11 9 -42 20 -70 10 -27 16 -36 12 -20 -3 17 -7 42 -7
57 -1 15 -7 33 -13 40 -10 10 -13 8 -12 -7z"/>
<path d="M3610 3750 c-6 -11 -8 -20 -6 -20 3 0 10 9 16 20 6 11 8 20 6 20 -3
0 -10 -9 -16 -20z"/>
<path d="M1670 3740 c6 -11 13 -20 16 -20 2 0 0 9 -6 20 -6 11 -13 20 -16 20
-2 0 0 -9 6 -20z"/>
<path d="M3498 3714 c-17 -38 -18 -48 -6 -58 7 -6 10 -7 5 -2 -4 6 8 26 25 45
25 27 26 30 6 12 -32 -28 -35 -23 -13 19 9 17 13 30 10 30 -4 0 -15 -21 -27
-46z"/>
<path d="M3183 3743 c3 -5 -7 -34 -23 -65 -20 -44 -24 -58 -13 -58 8 0 12 4 9
8 -2 4 8 34 23 65 20 42 24 57 14 57 -8 0 -12 -3 -10 -7z"/>
<path d="M1803 3667 l69 -69 -28 -29 c-15 -16 -33 -28 -38 -26 -14 5 -35 -15
-29 -28 2 -6 -8 -22 -22 -35 -25 -23 -25 -23 -46 -4 l-22 19 18 -27 c14 -22
14 -28 3 -28 -7 0 -14 -9 -14 -20 0 -11 3 -16 6 -12 3 4 48 51 99 104 l93 97
-22 35 c-12 20 -24 36 -27 36 -3 0 2 -12 12 -26 30 -46 7 -38 -58 22 -63 58
-63 58 6 -9z"/>
<path d="M2220 3730 c-11 -7 -11 -10 -2 -10 14 0 64 -99 56 -112 -6 -9 10 -11
18 -3 3 3 -8 30 -24 60 -16 30 -27 59 -23 65 8 13 -5 13 -25 0z"/>
<path d="M3700 3695 c-17 -25 -29 -45 -26 -45 3 0 19 20 36 45 17 25 29 45 26
45 -3 0 -19 -20 -36 -45z"/>
<path d="M3844 3728 c-4 -7 -3 -8 4 -4 16 10 15 -7 0 -23 -10 -11 -10 -12 -1
-7 7 4 18 16 23 27 8 15 7 19 -4 19 -8 0 -18 -5 -22 -12z"/>
<path d="M1870 3727 c0 -2 15 -16 33 -33 l32 -29 -29 33 c-28 30 -36 37 -36
29z"/>
<path d="M1810 3716 c0 -2 8 -10 18 -17 15 -13 16 -12 3 4 -13 16 -21 21 -21
13z"/>
<path d="M1705 3686 c10 -14 19 -26 22 -26 7 0 -17 39 -28 46 -6 3 -3 -5 6
-20z"/>
<path d="M3784 3678 l-29 -33 33 29 c17 17 32 31 32 33 0 8 -8 1 -36 -29z"/>
<path d="M3256 3675 c-42 -63 -39 -105 5 -105 18 0 59 53 59 75 0 6 -10 -7
-22 -28 -16 -27 -28 -37 -43 -35 -24 4 -23 39 1 76 22 33 44 39 62 16 14 -18
14 -18 8 -1 -3 10 -6 21 -6 23 0 2 -11 4 -24 4 -14 0 -30 -10 -40 -25z"/>
<path d="M3564 3668 c-9 -18 -21 -36 -26 -39 -5 -3 -2 -12 7 -19 15 -12 21 -4
16 23 -1 4 6 21 14 37 9 17 13 30 11 30 -3 0 -13 -15 -22 -32z"/>
<path d="M1532 3681 c2 -7 7 -12 11 -12 12 1 9 15 -3 20 -7 2 -11 -2 -8 -8z"/>
<path d="M1940 3675 c0 -10 -8 -27 -17 -38 -15 -17 -12 -16 15 3 17 13 29 26
25 30 -5 3 -11 9 -15 14 -5 5 -8 1 -8 -9z"/>
<path d="M3819 3663 c-13 -16 -12 -17 4 -4 16 13 21 21 13 21 -2 0 -10 -8 -17
-17z"/>
<path d="M1570 3666 c0 -2 8 -10 18 -17 15 -13 16 -12 3 4 -13 16 -21 21 -21
13z"/>
<path d="M3347 3596 c-21 -32 -36 -60 -34 -62 3 -3 15 11 27 30 12 20 28 40
37 44 8 5 13 17 12 27 -3 13 -14 3 -42 -39z"/>
<path d="M1560 3637 c0 -2 15 -16 33 -33 l32 -29 -29 33 c-28 30 -36 37 -36
29z"/>
<path d="M3650 3620 c-6 -11 -8 -20 -6 -20 3 0 10 9 16 20 6 11 8 20 6 20 -3
0 -10 -9 -16 -20z"/>
<path d="M3709 3613 l-24 -28 28 24 c25 23 32 31 24 31 -2 0 -14 -12 -28 -27z"/>
<path d="M3784 3618 l-19 -23 23 19 c21 18 27 26 19 26 -2 0 -12 -10 -23 -22z"/>
<path d="M2016 3611 c-17 -18 -16 -21 19 -70 38 -52 61 -71 30 -25 -16 24 -16
27 2 46 18 21 18 21 -5 7 -21 -13 -25 -12 -38 6 -13 18 -12 21 8 37 13 10 18
18 12 18 -6 0 -19 -9 -28 -19z"/>
<path d="M2688 3623 c28 -2 76 -2 105 0 28 2 5 3 -53 3 -58 0 -81 -1 -52 -3z"/>
<path d="M2588 3613 c7 -3 16 -2 19 1 4 3 -2 6 -13 5 -11 0 -14 -3 -6 -6z"/>
<path d="M2888 3613 c7 -3 16 -2 19 1 4 3 -2 6 -13 5 -11 0 -14 -3 -6 -6z"/>
<path d="M3966 3609 c3 -6 -26 -45 -67 -88 l-74 -76 73 70 c83 79 102 105 77
105 -9 0 -13 -5 -9 -11z"/>
<path d="M2528 3603 c6 -2 18 -2 25 0 6 3 1 5 -13 5 -14 0 -19 -2 -12 -5z"/>
<path d="M2950 3600 c34 -11 60 -11 35 0 -11 5 -29 8 -40 8 -16 0 -15 -2 5 -8z"/>
<path d="M3408 3575 c-13 -19 -29 -35 -35 -35 -7 0 -13 -9 -13 -20 0 -28 3
-26 36 22 42 61 46 68 40 68 -3 0 -16 -16 -28 -35z"/>
<path d="M2488 3593 c7 -3 16 -2 19 1 4 3 -2 6 -13 5 -11 0 -14 -3 -6 -6z"/>
<path d="M3634 3533 c39 -40 75 -69 82 -66 10 4 10 8 1 18 -7 7 -15 9 -18 4
-5 -9 -77 58 -71 67 1 2 0 3 -2 2 -3 -2 -17 8 -33 22 -15 13 3 -8 41 -47z"/>
<path d="M1680 3586 c0 -2 8 -10 18 -17 15 -13 16 -12 3 4 -13 16 -21 21 -21
13z"/>
<path d="M2685 3579 c4 -6 9 -8 12 -5 3 3 15 0 27 -6 19 -10 20 -10 7 5 -15
19 -56 24 -46 6z"/>
<path d="M3659 3573 c-13 -16 -12 -17 4 -4 9 7 17 15 17 17 0 8 -8 3 -21 -13z"/>
<path d="M2822 3568 c-7 -7 -12 -21 -12 -31 0 -17 -5 -19 -35 -14 -19 3 -37 1
-40 -4 -4 -5 -2 -9 4 -9 5 0 12 -28 14 -62 l3 -63 2 63 c2 60 3 62 28 62 27 0
27 0 20 -62 -5 -44 -4 -58 4 -48 5 8 10 33 10 56 0 22 5 45 12 52 9 9 9 12 0
12 -20 0 -14 28 9 40 16 9 27 7 55 -9 19 -11 34 -18 34 -16 0 9 -65 45 -80 45
-9 0 -21 -5 -28 -12z"/>
<path d="M1430 3562 c0 -4 35 -41 77 -82 l78 -75 -68 70 c-37 39 -67 76 -67
83 0 6 -4 12 -10 12 -5 0 -10 -3 -10 -8z"/>
<path d="M2340 3545 c-14 -8 -20 -14 -15 -14 6 0 21 6 35 14 14 8 21 14 15 14
-5 0 -21 -6 -35 -14z"/>
<path d="M2458 3553 c6 -2 18 -2 25 0 6 3 1 5 -13 5 -14 0 -19 -2 -12 -5z"/>
<path d="M3729 3543 c-13 -16 -12 -17 4 -4 16 13 21 21 13 21 -2 0 -10 -8 -17
-17z"/>
<path d="M3131 3546 c10 -9 109 -56 109 -51 0 5 -95 55 -106 55 -4 0 -5 -2 -3
-4z"/>
<path d="M1665 3520 c10 -11 20 -20 23 -20 3 0 -3 9 -13 20 -10 11 -20 20 -23
20 -3 0 3 -9 13 -20z"/>
<path d="M1917 3533 c-16 -16 -4 -52 27 -82 39 -38 70 -38 74 -1 5 45 -75 110
-101 83z m66 -31 c32 -33 36 -72 8 -72 -23 0 -71 54 -71 81 0 28 32 24 63 -9z"/>
<path d="M2504 3533 c4 -8 -2 -11 -20 -10 -15 1 -29 -4 -32 -11 -3 -11 0 -12
15 -4 24 13 56 -3 35 -17 -11 -6 -9 -9 6 -13 14 -4 22 -17 26 -44 4 -22 12
-46 17 -54 7 -11 8 -5 2 20 -4 19 -8 49 -8 65 0 18 -10 40 -24 55 -13 14 -21
20 -17 13z"/>
<path d="M2285 3520 c-3 -6 1 -7 9 -4 18 7 21 14 7 14 -6 0 -13 -4 -16 -10z"/>
<path d="M2625 3515 c-39 -8 -54 -13 -33 -12 47 2 59 -9 24 -22 -14 -6 -26
-15 -26 -21 0 -9 18 -43 37 -69 1 -2 20 -5 41 -6 l38 -2 -9 61 c-6 42 -6 61 2
64 12 4 15 23 4 21 -5 -1 -39 -7 -78 -14z m59 -46 c7 -45 -5 -69 -35 -69 -22
0 -24 11 -7 28 9 9 6 12 -16 12 -33 0 -31 23 2 28 14 2 22 11 22 23 0 37 27
20 34 -22z"/>
<path d="M2873 3506 c21 -16 22 -45 2 -52 -19 -8 -20 -34 0 -34 8 0 17 14 21
35 5 29 11 35 31 35 24 0 25 -2 18 -37 -15 -85 -17 -98 -7 -83 5 8 13 36 16
63 5 34 12 47 23 47 32 0 3 13 -59 25 -51 11 -60 11 -45 1z"/>
<path d="M2238 3494 c-38 -20 -36 -28 2 -9 17 9 30 18 30 20 0 7 -1 6 -32 -11z"/>
<path d="M3584 3483 c5 -11 -7 -31 -36 -62 l-43 -46 46 43 c34 32 50 41 65 36
16 -6 15 -3 -5 19 -28 31 -36 34 -27 10z"/>
<path d="M3250 3486 c0 -3 9 -10 20 -16 11 -6 20 -8 20 -6 0 3 -9 10 -20 16
-11 6 -20 8 -20 6z"/>
<path d="M4060 3475 c0 -8 2 -15 4 -15 2 0 6 7 10 15 3 8 1 15 -4 15 -6 0 -10
-7 -10 -15z"/>
<path d="M2410 3462 c-25 -9 -38 -18 -30 -20 24 -5 61 -71 55 -96 -6 -19 -4
-19 14 4 11 14 21 30 21 35 0 6 10 -1 21 -15 l20 -25 -7 25 c-3 14 -13 40 -20
59 -8 18 -11 37 -8 42 8 13 -14 10 -66 -9z m59 -24 c10 -25 -3 -48 -25 -48
-21 0 -39 51 -22 62 22 14 38 9 47 -14z"/>
<path d="M3043 3459 c41 -22 43 -46 1 -27 -20 9 -28 9 -41 -4 -19 -20 -11 -48
17 -55 12 -3 20 -14 20 -27 1 -19 2 -19 15 5 8 15 21 29 30 33 24 9 31 -23 9
-39 -11 -8 -14 -15 -9 -15 35 -1 47 59 15 67 -32 9 -17 28 21 27 32 -2 30 0
-26 26 -69 32 -109 39 -52 9z m15 -58 c-2 -9 -13 -17 -26 -19 -16 -3 -22 2
-22 16 0 11 6 22 13 25 20 7 38 -4 35 -22z"/>
<path d="M3150 3465 c-8 -9 -9 -15 -2 -15 6 0 14 5 17 10 10 16 35 -8 35 -31
0 -11 -7 -19 -16 -19 -8 0 -12 -5 -9 -10 4 -6 -5 -30 -19 -55 -14 -24 -26 -50
-26 -57 0 -7 14 11 31 40 17 28 37 52 45 52 10 0 12 5 7 13 -4 6 -6 22 -5 33
3 21 -21 54 -37 54 -5 0 -14 -7 -21 -15z"/>
<path d="M3300 3456 c0 -2 14 -14 30 -26 17 -12 30 -19 30 -16 0 2 -13 14 -30
26 -16 12 -30 19 -30 16z"/>
<path d="M4009 3423 l-34 -38 38 34 c20 19 37 36 37 38 0 8 -8 0 -41 -34z"/>
<path d="M2089 3387 c-41 -35 -92 -86 -113 -113 -29 -35 -19 -28 35 27 41 42
94 92 119 112 25 20 42 37 39 37 -3 0 -39 -28 -80 -63z"/>
<path d="M3725 3430 c10 -11 20 -20 23 -20 3 0 -3 9 -13 20 -10 11 -20 20 -23
20 -3 0 3 -9 13 -20z"/>
<path d="M1347 3433 c-4 -6 3 -19 16 -29 12 -11 17 -12 11 -4 -6 8 -13 22 -16
30 -3 9 -7 10 -11 3z"/>
<path d="M3804 3418 l-19 -23 23 19 c12 11 22 21 22 23 0 8 -8 2 -26 -19z"/>
<path d="M1437 3399 c7 -7 15 -10 18 -7 3 3 -2 9 -12 12 -14 6 -15 5 -6 -5z"/>
<path d="M3455 3320 c49 -52 94 -99 99 -105 5 -5 0 4 -12 20 -11 17 -56 64
-99 105 l-78 75 90 -95z"/>
<path d="M2264 3385 c-17 -13 -17 -14 -2 -15 10 0 29 -20 44 -45 14 -25 29
-44 31 -41 3 2 -7 25 -22 50 -15 25 -24 50 -20 56 9 15 -8 12 -31 -5z"/>
<path d="M3613 3359 c-52 -41 -52 -41 -35 -64 9 -13 19 -21 21 -19 2 2 -2 11
-9 19 -11 14 -10 19 8 37 21 22 21 22 44 2 l23 -19 -18 21 c-16 20 -16 22 3
39 19 17 20 17 41 -6 l21 -24 -14 24 c-8 14 -19 26 -24 28 -5 1 -32 -16 -61
-38z"/>
<path d="M3771 3371 c25 -34 31 -39 23 -16 -4 10 0 15 12 15 22 0 14 9 -12 13
-10 1 -25 6 -33 11 -7 5 -3 -5 10 -23z"/>
<path d="M3840 3390 c-8 -5 -10 -10 -5 -10 6 0 17 5 25 10 8 5 11 10 5 10 -5
0 -17 -5 -25 -10z"/>
<path d="M1390 3386 c0 -2 8 -10 18 -17 15 -13 16 -12 3 4 -13 16 -21 21 -21
13z"/>
<path d="M1669 3373 c-13 -16 -12 -17 4 -4 9 7 17 15 17 17 0 8 -8 3 -21 -13z"/>
<path d="M3934 3358 l-29 -33 33 29 c17 17 32 31 32 33 0 8 -8 1 -36 -29z"/>
<path d="M1623 3364 c9 -11 14 -24 10 -28 -4 -3 -8 -14 -9 -24 -2 -12 2 -10
16 8 10 14 18 25 17 25 -1 0 -13 9 -27 20 l-25 20 18 -21z"/>
<path d="M1756 3358 c-9 -12 -16 -25 -16 -28 0 -3 23 -23 50 -44 49 -37 51
-38 70 -21 11 10 20 22 20 28 0 5 -9 -1 -19 -14 l-20 -24 -22 22 c-20 19 -21
24 -8 40 13 17 13 17 -6 1 -17 -14 -23 -15 -39 -3 -18 13 -18 16 -2 40 20 31
13 34 -8 3z"/>
<path d="M2187 3333 c-26 -19 -46 -38 -43 -40 3 -3 20 7 39 21 30 23 36 24 47
11 10 -12 7 -19 -17 -39 -21 -19 -25 -27 -16 -36 14 -15 34 -4 27 15 -11 27
27 30 47 4 10 -13 20 -21 23 -19 3 3 -10 25 -29 49 -19 23 -31 49 -28 57 7 19
4 18 -50 -23z"/>
<path d="M1430 3356 c0 -2 8 -10 18 -17 15 -13 16 -12 3 4 -13 16 -21 21 -21
13z"/>
<path d="M4130 3338 c-12 -22 -12 -22 6 -6 10 10 15 20 12 24 -4 3 -12 -5 -18
-18z"/>
<path d="M4090 3340 c-8 -5 -10 -10 -5 -10 6 0 17 5 25 10 8 5 11 10 5 10 -5
0 -17 -5 -25 -10z"/>
<path d="M3291 3323 c10 -18 10 -24 0 -37 -7 -9 -18 -13 -23 -10 -6 4 -14 0
-19 -7 -12 -19 -11 -66 1 -74 6 -4 7 6 4 25 -8 37 9 40 36 8 17 -21 17 -25 3
-41 -9 -9 -14 -20 -11 -22 3 -3 24 15 46 40 27 31 46 44 54 39 22 -13 -25 37
-66 69 -29 23 -35 26 -25 10z m53 -56 c16 -25 -16 -56 -38 -37 -19 15 -20 32
-4 48 15 15 28 11 42 -11z"/>
<path d="M1522 3282 c50 -46 59 -62 33 -62 -13 0 -14 -2 -3 -14 11 -12 15 -11
24 6 10 18 6 25 -30 56 -61 54 -79 64 -24 14z"/>
<path d="M4010 3310 c-8 -5 -10 -10 -5 -10 6 0 17 5 25 10 8 5 11 10 5 10 -5
0 -17 -5 -25 -10z"/>
<path d="M3687 3278 c-37 -22 -56 -56 -42 -77 3 -6 12 -11 18 -11 8 0 8 3 -1
9 -22 13 -10 43 27 68 43 29 59 29 71 1 5 -14 9 -17 9 -7 1 17 -18 39 -33 39
-6 0 -28 -10 -49 -22z"/>
<path d="M3846 3255 c31 -56 55 -87 30 -39 -8 18 -13 42 -11 55 3 17 2 20 -7
11 -8 -8 -15 -7 -25 6 -8 9 -2 -5 13 -33z"/>
<path d="M1270 3282 c0 -4 15 -16 33 -26 26 -14 28 -14 12 -1 -11 9 -19 21
-17 26 1 5 -5 9 -13 9 -8 0 -15 -4 -15 -8z"/>
<path d="M1600 3270 c-6 -11 -8 -20 -6 -20 3 0 10 9 16 20 6 11 8 20 6 20 -3
0 -10 -9 -16 -20z"/>
<path d="M2089 3243 c-54 -58 -68 -83 -23 -40 45 42 54 44 77 19 21 -23 21
-36 1 -56 -8 -9 -11 -16 -6 -16 5 0 15 7 22 15 8 9 21 13 34 10 14 -4 5 9 -27
39 -27 25 -46 50 -42 56 12 20 -2 9 -36 -27z"/>
<path d="M3918 3273 c7 -3 16 -2 19 1 4 3 -2 6 -13 5 -11 0 -14 -3 -6 -6z"/>
<path d="M4024 3264 c-18 -14 -18 -15 4 -4 12 6 22 13 22 15 0 8 -5 6 -26 -11z"/>
<path d="M1680 3251 c-14 -26 -13 -31 5 -25 8 3 37 -8 65 -25 27 -17 50 -27
50 -23 0 4 -25 22 -55 40 -31 18 -53 38 -50 43 4 5 4 9 1 9 -3 0 -10 -9 -16
-19z"/>
<path d="M1388 3253 c7 -3 16 -2 19 1 4 3 -2 6 -13 5 -11 0 -14 -3 -6 -6z"/>
<path d="M2661 3224 c-32 -27 -84 -125 -96 -181 -7 -37 -9 -37 -105 -22 -133
22 -220 -14 -220 -92 0 -51 36 -121 94 -186 l46 -51 -30 -33 c-59 -67 -93
-129 -98 -180 -4 -45 -2 -53 23 -79 19 -20 42 -31 73 -36 39 -6 137 5 198 22
18 5 24 0 34 -33 20 -61 66 -146 93 -171 13 -12 40 -25 59 -28 29 -5 41 -1 72
26 43 38 67 82 91 164 16 53 19 57 41 52 29 -8 33 10 4 19 -13 4 -20 16 -21
33 -2 24 -2 24 -6 5 -2 -13 -10 -23 -18 -23 -19 0 -125 42 -125 49 1 3 33 25
73 47 l72 42 6 -47 6 -46 1 46 c1 29 9 56 22 72 24 30 25 38 5 31 -12 -5 -15
6 -17 62 l-1 69 -6 -77 c-3 -42 -8 -79 -11 -81 -16 -16 -172 -107 -183 -107
-19 0 -170 88 -185 107 -6 9 -19 18 -27 19 -28 4 -115 78 -104 88 29 27 93 76
100 76 4 0 10 -35 12 -77 l3 -78 2 86 c2 99 -1 95 115 163 l78 46 75 -41 c42
-23 88 -52 102 -64 15 -12 35 -24 45 -28 24 -9 22 15 -3 31 -11 7 -20 19 -20
27 0 8 -6 12 -14 9 -8 -3 -47 13 -87 35 l-73 40 57 26 c32 14 64 25 71 25 8 0
18 -19 25 -47 l10 -48 -4 52 c-2 29 0 55 6 58 5 4 9 11 9 16 0 6 -4 8 -9 5
-13 -8 -25 11 -51 81 -13 39 -39 80 -64 108 -52 55 -96 61 -145 19z m135 -28
c37 -39 75 -115 86 -170 2 -15 -13 -25 -75 -51 l-78 -33 -42 18 c-23 10 -59
22 -79 25 -42 8 -43 11 -24 76 21 70 52 124 86 153 46 38 76 34 126 -18z
m-283 -203 c31 -5 37 -10 38 -32 2 -23 2 -24 6 -3 2 12 6 22 7 22 7 0 118 -40
127 -46 6 -3 -8 -17 -33 -32 -23 -14 -54 -34 -67 -44 -13 -10 -32 -18 -42 -18
-11 0 -19 -4 -19 -8 0 -5 -30 -35 -66 -66 l-65 -58 -31 28 c-53 50 -108 143
-108 184 0 41 28 75 70 83 26 5 116 0 183 -10z m-33 -376 c55 -43 55 -43 68
-121 7 -43 11 -81 8 -83 -10 -10 -122 -33 -162 -33 -53 0 -102 17 -114 40 -26
48 2 126 74 212 44 53 39 53 126 -15z m155 -98 c42 -23 73 -45 68 -49 -4 -4
-28 -15 -53 -25 -25 -9 -51 -19 -57 -22 -7 -3 -17 6 -21 18 -11 30 -25 119
-18 119 2 0 39 -19 81 -41z m181 -85 c38 -14 73 -29 77 -33 13 -13 -51 -166
-82 -200 -56 -60 -106 -49 -162 35 -31 47 -74 157 -62 162 4 1 37 16 73 31 36
16 70 29 76 30 7 1 43 -11 80 -25z"/>
<path d="M2543 2895 c0 -22 2 -30 4 -17 2 12 2 30 0 40 -3 9 -5 -1 -4 -23z"/>
<path d="M3979 3233 c-13 -16 -12 -17 4 -4 16 13 21 21 13 21 -2 0 -10 -8 -17
-17z"/>
<path d="M1458 3233 c7 -3 16 -2 19 1 4 3 -2 6 -13 5 -11 0 -14 -3 -6 -6z"/>
<path d="M1380 3216 c0 -3 14 -12 30 -21 17 -9 30 -13 30 -11 0 3 -13 12 -30
21 -16 9 -30 13 -30 11z"/>
<path d="M1912 3193 c-26 -38 -34 -53 -29 -53 2 0 16 18 31 40 29 45 28 56 -2
13z"/>
<path d="M2098 3203 c-22 -27 -33 -47 -20 -39 6 3 13 2 17 -4 12 -19 20 -10
21 25 0 19 0 35 -1 35 -1 0 -9 -8 -17 -17z"/>
<path d="M3409 3206 c14 -17 -11 -41 -34 -33 -19 8 -42 -70 -26 -86 8 -8 11
-2 11 21 0 22 5 32 15 32 8 0 15 -5 15 -11 0 -16 36 -59 43 -52 4 3 13 0 22
-7 20 -17 47 5 43 34 -3 21 -38 36 -38 16 0 -6 5 -8 10 -5 11 7 26 -22 17 -32
-10 -10 -67 18 -82 40 -13 18 -13 23 2 39 15 17 17 17 35 2 26 -25 22 -4 -7
29 -24 27 -48 39 -26 13z"/>
<path d="M4196 3194 c-5 -14 -4 -15 9 -4 17 14 19 20 6 20 -5 0 -12 -7 -15
-16z"/>
<path d="M3740 3170 c-55 -29 -64 -41 -15 -18 22 10 28 9 36 -3 14 -22 11 -27
-22 -44 -17 -9 -29 -19 -26 -21 2 -3 31 10 63 27 79 43 85 50 20 23 -9 -3 -19
3 -25 15 -10 17 -7 22 16 35 16 8 24 15 18 15 -5 0 -35 -13 -65 -29z"/>
<path d="M4118 3193 c7 -3 16 -2 19 1 4 3 -2 6 -13 5 -11 0 -14 -3 -6 -6z"/>
<path d="M1230 3170 c0 -5 9 -14 21 -20 19 -11 20 -10 9 9 -11 22 -30 29 -30
11z"/>
<path d="M1450 3176 c0 -3 9 -10 20 -16 11 -6 20 -8 20 -6 0 3 -9 10 -20 16
-11 6 -20 8 -20 6z"/>
<path d="M4028 3173 c6 -2 18 -2 25 0 6 3 1 5 -13 5 -14 0 -19 -2 -12 -5z"/>
<path d="M4120 3150 c-30 -16 -51 -29 -47 -30 10 0 107 49 107 55 0 7 1 7 -60
-25z"/>
<path d="M1278 3163 c7 -3 16 -2 19 1 4 3 -2 6 -13 5 -11 0 -14 -3 -6 -6z"/>
<path d="M1631 3167 c16 -13 118 -63 113 -56 -6 10 -98 59 -110 59 -4 0 -5 -2
-3 -3z"/>
<path d="M3896 3155 c4 -8 8 -15 10 -15 2 0 4 7 4 15 0 8 -4 15 -10 15 -5 0
-7 -7 -4 -15z"/>
<path d="M3978 3163 c6 -2 18 -2 25 0 6 3 1 5 -13 5 -14 0 -19 -2 -12 -5z"/>
<path d="M1318 3153 c7 -3 16 -2 19 1 4 3 -2 6 -13 5 -11 0 -14 -3 -6 -6z"/>
<path d="M1510 3135 c8 -10 7 -14 -7 -17 -16 -3 -15 -5 4 -10 15 -4 23 -1 26
12 3 12 -2 20 -15 23 -15 4 -17 3 -8 -8z"/>
<path d="M1977 3096 c-35 -54 -46 -86 -18 -52 16 19 41 10 41 -15 0 -14 7 -19
29 -19 36 0 61 9 61 21 0 6 -8 5 -19 -1 -43 -22 -57 2 -21 35 16 15 22 16 35
5 9 -7 18 -10 21 -7 4 3 -14 19 -40 34 -25 15 -47 34 -49 43 -1 9 -18 -9 -40
-44z m56 10 c15 -12 16 -18 7 -35 -13 -25 -20 -26 -44 -8 -16 12 -17 16 -5 35
16 26 18 26 42 8z"/>
<path d="M1300 3125 c14 -8 30 -14 35 -14 6 0 -1 6 -15 14 -14 8 -29 14 -35
14 -5 0 1 -6 15 -14z"/>
<path d="M1398 3133 c7 -3 16 -2 19 1 4 3 -2 6 -13 5 -11 0 -14 -3 -6 -6z"/>
<path d="M3610 3120 c6 -11 13 -20 16 -20 2 0 0 9 -6 20 -6 11 -13 20 -16 20
-2 0 0 -9 6 -20z"/>
<path d="M1839 3069 c-16 -34 -29 -63 -27 -65 2 -2 18 26 36 61 17 36 30 65
27 65 -3 0 -19 -27 -36 -61z"/>
<path d="M1613 3113 c3 -5 28 -19 56 -32 49 -24 82 -23 80 1 0 10 -2 10 -6 1
-7 -19 -28 -16 -84 13 -28 14 -49 21 -46 17z"/>
<path d="M4018 3099 c-21 -11 -38 -22 -38 -24 0 -3 18 4 40 15 22 11 40 23 40
25 0 7 0 7 -42 -16z"/>
<path d="M4205 3110 c-28 -7 -28 -8 -5 -9 24 -2 23 -3 -10 -21 -46 -25 -30
-26 20 0 65 33 63 47 -5 30z"/>
<path d="M3920 3105 c0 -5 5 -17 10 -25 5 -8 10 -10 10 -5 0 6 -5 17 -10 25
-5 8 -10 11 -10 5z"/>
<path d="M1380 3090 c8 -5 20 -10 25 -10 6 0 3 5 -5 10 -8 5 -19 10 -25 10 -5
0 -3 -5 5 -10z"/>
<path d="M4148 3093 c7 -3 16 -2 19 1 4 3 -2 6 -13 5 -11 0 -14 -3 -6 -6z"/>
<path d="M1506 3075 c-9 -26 -7 -32 5 -12 6 10 9 21 6 23 -2 3 -7 -2 -11 -11z"/>
<path d="M3630 3081 c0 -6 4 -13 10 -16 6 -3 7 1 4 9 -7 18 -14 21 -14 7z"/>
<path d="M3792 3068 c-29 -12 -51 -23 -48 -25 2 -2 20 3 40 11 20 8 42 13 50
10 7 -3 19 2 26 11 17 21 -1 19 -68 -7z"/>
<path d="M4108 3083 c7 -3 16 -2 19 1 4 3 -2 6 -13 5 -11 0 -14 -3 -6 -6z"/>
<path d="M3510 3064 c0 -13 -10 -26 -26 -33 -22 -10 -30 -9 -45 5 -21 19 -27
6 -7 -14 9 -9 8 -15 -8 -27 -34 -26 -3 -16 49 16 39 24 52 28 58 17 7 -10 9
-10 9 2 -1 8 -7 24 -15 34 -15 20 -15 20 -15 0z"/>
<path d="M4068 3073 c7 -3 16 -2 19 1 4 3 -2 6 -13 5 -11 0 -14 -3 -6 -6z"/>
<path d="M1190 3061 c0 -10 30 -24 37 -17 3 3 2 9 -2 15 -8 13 -35 15 -35 2z"/>
<path d="M2158 3063 c7 -3 16 -2 19 1 4 3 -2 6 -13 5 -11 0 -14 -3 -6 -6z"/>
<path d="M3948 3059 c-21 -13 -5 -18 32 -10 34 7 34 7 8 13 -15 3 -32 1 -40
-3z"/>
<path d="M4028 3063 c7 -3 16 -2 19 1 4 3 -2 6 -13 5 -11 0 -14 -3 -6 -6z"/>
<path d="M1468 3047 c12 -14 9 -16 -20 -20 l-33 -4 33 -1 c23 -2 32 -7 33 -19
0 -15 2 -15 9 2 12 29 12 29 -12 44 -21 13 -22 13 -10 -2z"/>
<path d="M2120 3045 c-13 -16 -6 -35 14 -35 20 0 40 27 26 35 -5 3 -10 -1 -10
-9 0 -9 -5 -16 -11 -16 -6 0 -9 9 -6 20 6 24 4 25 -13 5z"/>
<path d="M3045 3050 c4 -6 11 -8 16 -5 14 9 11 15 -7 15 -8 0 -12 -5 -9 -10z"/>
<path d="M3178 3035 c-3 -14 -1 -25 3 -25 5 0 9 11 9 25 0 14 -2 25 -4 25 -2
0 -6 -11 -8 -25z"/>
<path d="M1318 3043 c6 -2 18 -2 25 0 6 3 1 5 -13 5 -14 0 -19 -2 -12 -5z"/>
<path d="M1573 3023 c-11 -30 -11 -32 7 -21 14 9 28 8 65 -6 25 -10 48 -16 51
-14 2 3 -21 13 -51 23 -30 11 -56 26 -58 34 -1 10 -7 3 -14 -16z"/>
<path d="M3000 3040 c0 -5 5 -10 10 -10 6 0 10 5 10 10 0 6 -4 10 -10 10 -5 0
-10 -4 -10 -10z"/>
<path d="M3650 3045 c0 -5 5 -17 10 -25 5 -8 10 -10 10 -5 0 6 -5 17 -10 25
-5 8 -10 11 -10 5z"/>
<path d="M4090 3035 c-14 -8 -20 -14 -15 -14 6 0 21 6 35 14 14 8 21 14 15 14
-5 0 -21 -6 -35 -14z"/>
<path d="M1368 3033 c6 -2 18 -2 25 0 6 3 1 5 -13 5 -14 0 -19 -2 -12 -5z"/>
<path d="M3775 3010 c-16 -16 -25 -30 -20 -30 17 0 125 45 125 52 0 4 -19 -1
-42 -12 -46 -20 -58 -19 -38 5 22 26 5 16 -25 -15z"/>
<path d="M2950 3020 c0 -5 5 -10 10 -10 6 0 10 5 10 10 0 6 -4 10 -10 10 -5 0
-10 -4 -10 -10z"/>
<path d="M4023 3000 c-38 -23 -43 -40 -10 -39 21 0 21 1 2 8 -18 7 -17 9 13
25 17 9 32 19 32 21 0 7 -2 6 -37 -15z"/>
<path d="M3540 2999 c0 -9 -22 -24 -52 -37 -28 -12 -49 -24 -46 -28 3 -3 28 6
56 20 37 19 52 22 61 13 16 -16 14 5 -4 29 -11 15 -14 16 -15 3z"/>
<path d="M4228 3003 c6 -2 10 -9 7 -13 -3 -5 8 -4 25 1 40 14 38 19 -7 18 -21
0 -32 -3 -25 -6z"/>
<path d="M4168 2993 c7 -3 16 -2 19 1 4 3 -2 6 -13 5 -11 0 -14 -3 -6 -6z"/>
<path d="M1170 2979 c0 -13 86 -28 120 -20 31 6 27 8 -42 17 -43 5 -78 7 -78
3z"/>
<path d="M4118 2983 c7 -3 16 -2 19 1 4 3 -2 6 -13 5 -11 0 -14 -3 -6 -6z"/>
<path d="M1470 2971 c0 -8 -7 -10 -21 -6 -14 5 -19 3 -15 -3 3 -6 -4 -13 -16
-15 -17 -3 -14 -5 10 -6 18 0 32 -7 33 -13 0 -7 5 0 10 16 4 17 6 32 4 35 -3
2 -5 -1 -5 -8z"/>
<path d="M4058 2973 c6 -2 18 -2 25 0 6 3 1 5 -13 5 -14 0 -19 -2 -12 -5z"/>
<path d="M3820 2956 c-29 -11 -35 -18 -35 -42 0 -24 5 -30 26 -32 34 -4 97 22
105 43 8 21 -14 45 -40 44 -11 0 -37 -6 -56 -13z m85 -20 c0 -14 -12 -23 -43
-34 -23 -7 -49 -11 -57 -8 -26 9 -16 36 18 51 44 20 82 15 82 -9z"/>
<path d="M1348 2953 c6 -2 18 -2 25 0 6 3 1 5 -13 5 -14 0 -19 -2 -12 -5z"/>
<path d="M4115 2945 c-25 -12 -26 -14 -5 -9 28 7 60 23 45 23 -5 0 -23 -6 -40
-14z"/>
<path d="M1295 2940 c11 -5 27 -9 35 -9 9 0 8 4 -5 9 -11 5 -27 9 -35 9 -9 0
-8 -4 5 -9z"/>
<path d="M1886 2903 c-20 -57 -20 -73 -3 -48 15 19 37 13 37 -11 0 -17 14 -18
41 -4 10 6 19 20 19 32 0 15 5 19 20 15 11 -3 20 -2 20 3 0 4 -21 13 -46 20
-25 7 -52 19 -59 26 -11 11 -16 6 -29 -33z m59 5 c28 -12 33 -39 11 -57 -12
-10 -17 -8 -26 8 -6 12 -17 21 -25 21 -17 0 -17 2 -9 24 7 19 15 20 49 4z"/>
<path d="M3576 2930 c3 -14 8 -34 11 -46 3 -14 -1 -23 -11 -27 -12 -5 -20 4
-31 30 -13 30 -17 34 -30 23 -16 -13 -12 -25 8 -25 7 0 13 -10 15 -22 3 -17
-3 -23 -30 -29 -18 -4 -27 -9 -20 -11 7 -3 33 2 59 11 37 13 49 13 56 4 14
-20 0 45 -18 83 -10 24 -13 26 -9 9z"/>
<path d="M1162 2934 c4 -3 39 -14 78 -24 73 -19 111 -38 54 -27 -17 3 -55 8
-85 11 l-54 5 50 -13 c82 -21 84 -25 10 -21 l-70 5 80 -15 c113 -22 114 -26 5
-21 -99 4 -100 4 55 -29 l70 -15 -110 4 c-120 5 -103 -8 28 -19 114 -10 83
-25 -41 -20 -69 3 -98 2 -82 -4 14 -5 49 -9 78 -10 80 -2 62 -21 -20 -22 l-73
-2 85 -9 c59 -7 86 -6 88 1 5 14 112 15 112 1 0 -5 -14 -10 -32 -10 -17 0 -84
-5 -147 -12 -84 -9 -108 -14 -86 -19 45 -10 147 -9 115 1 -17 5 3 8 63 9 71 1
87 -2 87 -14 0 -12 -9 -14 -37 -11 -21 2 -28 1 -15 -1 12 -2 22 -9 22 -14 0
-5 7 -9 16 -9 13 0 16 -7 12 -32 -3 -18 -1 -46 3 -63 4 -19 7 9 8 75 1 98 8
166 26 265 4 22 4 37 0 33 -4 -4 -17 -3 -29 1 -45 17 -78 22 -71 11 8 -13 -4
-13 -105 5 -97 17 -95 17 -88 9z m257 -40 c33 -7 43 -25 14 -23 -10 0 -36 6
-58 14 -34 11 -36 13 -14 14 15 1 41 -2 58 -5z m11 -94 c0 -13 -20 -13 -40 0
-12 8 -9 10 13 10 15 0 27 -4 27 -10z m0 -30 c0 -13 -11 -13 -30 0 -12 8 -11
10 8 10 12 0 22 -4 22 -10z m-10 -30 c0 -5 -6 -10 -14 -10 -8 0 -18 5 -21 10
-3 6 3 10 14 10 12 0 21 -4 21 -10z"/>
<path d="M4203 2927 c-29 -5 -53 -13 -53 -18 0 -4 -17 -6 -37 -4 l-38 5 35
-10 c27 -7 53 -4 110 12 41 11 77 22 79 24 7 6 -40 2 -96 -9z"/>
<path d="M1540 2914 c0 -12 7 -20 19 -21 41 -3 101 -24 101 -36 0 -7 4 -6 10
3 12 19 13 33 1 25 -15 -9 -105 16 -118 33 -12 14 -13 14 -13 -4z"/>
<path d="M3981 2914 c0 -11 3 -14 6 -6 3 7 2 16 -1 19 -3 4 -6 -2 -5 -13z"/>
<path d="M4028 2913 c-28 -7 -21 -23 10 -22 15 0 21 3 14 6 -6 2 -10 9 -6 14
3 5 4 8 2 8 -2 -1 -11 -3 -20 -6z"/>
<path d="M3220 2885 c0 -14 4 -25 9 -25 4 0 6 11 3 25 -2 14 -6 25 -8 25 -2 0
-4 -11 -4 -25z"/>
<path d="M1771 2884 c0 -11 3 -14 6 -6 3 7 2 16 -1 19 -3 4 -6 -2 -5 -13z"/>
<path d="M4210 2889 c-25 -5 -57 -7 -71 -5 -28 5 -98 -10 -112 -24 -5 -4 13
-5 40 -2 26 2 50 9 51 13 4 10 22 2 22 -10 0 -4 -28 -13 -62 -21 -58 -14 -60
-15 -28 -18 l35 -4 -30 -13 -30 -13 30 -1 c31 -1 25 -15 -10 -24 -12 -3 -6 -5
15 -6 27 -1 31 -4 20 -11 -25 -16 -60 -12 -60 7 0 9 -3 14 -6 10 -11 -11 7
-46 21 -41 9 4 13 -1 12 -15 -1 -23 -13 -28 -20 -8 -3 6 -6 3 -6 -8 -1 -18 5
-20 71 -18 57 2 67 0 44 -7 -17 -5 -49 -10 -73 -12 l-43 -2 1 -55 c1 -31 4
-46 6 -33 4 19 10 22 31 19 15 -2 21 -2 13 1 -12 3 -12 5 0 14 10 7 6 8 -13 4
-23 -5 -28 -3 -28 14 0 19 6 20 99 20 65 0 101 -4 103 -11 3 -8 20 -9 58 -3
l55 8 -110 11 -110 11 103 8 c56 5 102 12 102 17 0 5 -35 9 -77 10 -90 1 -87
5 12 18 l70 8 -65 3 -65 2 65 14 65 13 -100 -4 c-109 -5 -105 8 5 19 36 4 72
12 80 17 11 8 7 9 -15 5 -16 -3 -66 -8 -110 -11 -98 -7 -83 8 24 24 41 7 81
16 90 22 13 8 13 9 -4 5 -11 -3 -47 -8 -80 -11 -33 -3 -70 -8 -82 -11 -13 -2
-23 -1 -23 4 0 4 39 16 88 26 81 18 156 44 87 31 -145 -27 -187 -21 -60 9 41
10 75 20 75 22 0 6 -51 3 -100 -7z"/>
<path d="M3711 2874 c0 -11 3 -14 6 -6 3 7 2 16 -1 19 -3 4 -6 -2 -5 -13z"/>
<path d="M3991 2874 c0 -11 3 -14 6 -6 3 7 2 16 -1 19 -3 4 -6 -2 -5 -13z"/>
<path d="M2698 2845 c-15 -8 -33 -25 -39 -38 -10 -18 -6 -17 20 8 26 24 41 30
75 30 49 0 73 -16 93 -64 19 -44 9 -84 -29 -116 -33 -28 -30 -33 6 -10 55 36
58 120 7 169 -35 34 -94 43 -133 21z"/>
<path d="M3170 2835 c0 -14 4 -25 9 -25 4 0 6 11 3 25 -2 14 -6 25 -8 25 -2 0
-4 -11 -4 -25z"/>
<path d="M3721 2834 c0 -11 3 -14 6 -6 3 7 2 16 -1 19 -3 4 -6 -2 -5 -13z"/>
<path d="M4000 2829 c0 -13 5 -31 10 -39 7 -11 8 -5 4 20 -8 43 -14 51 -14 19z"/>
<path d="M3833 2833 c-26 -3 -33 -9 -32 -26 1 -15 3 -17 6 -6 2 11 22 20 56
26 51 10 33 14 -30 6z"/>
<path d="M1752 2805 c0 -16 2 -22 5 -12 2 9 2 23 0 30 -3 6 -5 -1 -5 -18z"/>
<path d="M2702 2814 c-12 -8 -22 -20 -22 -26 0 -6 10 -2 23 10 13 12 36 22 51
22 34 0 76 -41 76 -75 0 -14 -11 -37 -25 -50 -16 -17 -19 -25 -10 -25 17 0 45
50 45 79 0 11 -12 33 -26 50 -29 35 -75 41 -112 15z"/>
<path d="M1860 2813 c0 -7 -8 -13 -17 -14 -10 0 -13 -3 -6 -5 7 -3 10 -32 8
-87 -3 -55 -1 -67 3 -37 8 52 25 56 32 8 4 -24 11 -34 27 -36 26 -4 63 14 63
30 0 6 -9 3 -19 -6 -27 -25 -56 -17 -56 14 0 22 5 26 45 30 l45 6 -62 8 c-59
7 -63 10 -63 33 0 25 2 25 43 19 23 -3 53 -8 67 -12 19 -4 22 -3 10 5 -8 6
-34 13 -58 17 -23 3 -47 14 -52 23 -6 9 -10 11 -10 4z"/>
<path d="M3732 2785 c0 -16 2 -22 5 -12 2 9 2 23 0 30 -3 6 -5 -1 -5 -18z"/>
<path d="M2718 2789 c-10 -5 -18 -15 -18 -21 0 -6 8 -4 18 5 10 10 27 17 38
17 42 0 58 -48 27 -82 -20 -22 -11 -24 11 -2 49 48 -16 119 -76 83z"/>
<path d="M3118 2775 c2 -14 6 -25 8 -25 2 0 4 11 4 25 0 14 -4 25 -9 25 -4 0
-6 -11 -3 -25z"/>
<path d="M1511 2768 c0 -16 2 -18 6 -8 3 8 11 18 17 22 7 5 4 8 -6 8 -12 0
-18 -7 -17 -22z"/>
<path d="M1802 2778 c-21 -21 -15 -48 11 -47 16 1 18 2 5 6 -21 5 -23 24 -6
41 7 7 10 12 7 12 -3 0 -10 -5 -17 -12z"/>
<path d="M2990 2775 c0 -8 5 -15 10 -15 6 0 10 7 10 15 0 8 -4 15 -10 15 -5 0
-10 -7 -10 -15z"/>
<path d="M1563 2773 c9 -2 25 -2 35 0 9 3 1 5 -18 5 -19 0 -27 -2 -17 -5z"/>
<path d="M1628 2763 c7 -3 16 -2 19 1 4 3 -2 6 -13 5 -11 0 -14 -3 -6 -6z"/>
<path d="M2637 2763 c-4 -3 -7 -21 -7 -39 0 -59 74 -117 125 -98 20 8 19 38
-2 55 -15 13 -15 12 -4 -9 7 -13 10 -26 7 -29 -9 -9 -77 49 -92 80 -17 31 -11
48 8 29 17 -17 33 -15 18 3 -13 16 -42 20 -53 8z"/>
<path d="M2730 2755 c0 -8 2 -15 4 -15 2 0 6 7 10 15 3 8 1 15 -4 15 -6 0 -10
-7 -10 -15z"/>
<path d="M2766 2748 c2 -13 2 -17 -2 -10 -4 9 -13 7 -35 -9 -16 -11 -26 -25
-23 -31 5 -7 11 -5 19 6 7 9 17 16 21 15 24 -4 34 3 34 26 0 14 -4 25 -9 25
-5 0 -7 -10 -5 -22z"/>
<path d="M3034 2758 c-3 -5 1 -17 10 -27 9 -10 16 -27 16 -39 0 -13 6 -22 15
-22 11 0 15 11 15 38 0 30 -5 39 -25 49 -16 7 -27 8 -31 1z"/>
<path d="M1742 2730 c0 -14 2 -19 5 -12 2 6 2 18 0 25 -3 6 -5 1 -5 -13z"/>
<path d="M3621 2723 c-1 -39 -27 -46 -40 -10 -8 22 -9 22 -40 -12 -17 -18 -31
-38 -31 -45 0 -6 10 1 21 16 17 22 24 26 39 18 10 -6 28 -10 39 -10 17 0 21
-6 21 -30 0 -30 0 -30 -62 -32 l-63 -2 60 -3 c33 -2 63 -10 67 -16 11 -17 9
113 -2 138 -7 17 -9 15 -9 -12z"/>
<path d="M3742 2705 c0 -16 2 -22 5 -12 2 9 2 23 0 30 -3 6 -5 -1 -5 -18z"/>
<path d="M3830 2715 c-6 -8 -10 -22 -8 -32 3 -15 13 -18 62 -18 66 0 92 19 67
49 -17 21 -104 22 -121 1z m117 -11 c8 -23 -14 -34 -69 -34 -40 0 -48 3 -48
18 0 28 9 32 62 32 35 0 50 -4 55 -16z"/>
<path d="M3124 2695 c-9 -23 15 -48 32 -34 16 13 18 35 6 43 -5 3 -8 -4 -8
-14 1 -11 -3 -18 -9 -17 -5 1 -10 10 -9 20 1 21 -5 22 -12 2z"/>
<path d="M1506 2674 c-8 -20 11 -44 34 -44 10 0 25 12 35 26 12 19 23 25 41
21 13 -2 21 0 18 4 -10 17 -41 9 -64 -16 -13 -14 -29 -25 -36 -25 -20 0 -27
19 -14 35 7 9 8 15 2 15 -5 0 -13 -7 -16 -16z"/>
<path d="M1625 2640 c-16 -17 -16 -20 -3 -15 9 4 19 13 22 21 7 19 2 18 -19
-6z"/>
<path d="M1733 2620 c0 -25 2 -35 4 -22 2 12 2 32 0 45 -2 12 -4 2 -4 -23z"/>
<path d="M2990 2640 c0 -5 5 -10 10 -10 6 0 10 5 10 10 0 6 -4 10 -10 10 -5 0
-10 -4 -10 -10z"/>
<path d="M3190 2620 c0 -25 4 -31 18 -28 11 2 17 12 17 28 0 16 -6 26 -17 28
-14 3 -18 -3 -18 -28z m30 0 c0 -11 -4 -20 -10 -20 -5 0 -10 9 -10 20 0 11 5
20 10 20 6 0 10 -9 10 -20z"/>
<path d="M1278 2623 c12 -2 30 -2 40 0 9 3 -1 5 -23 4 -22 0 -30 -2 -17 -4z"/>
<path d="M1145 2611 c-15 -7 -7 -10 35 -16 31 -4 69 -5 85 -2 19 2 9 5 -25 6
-40 1 -51 4 -40 11 12 8 10 10 -10 9 -14 0 -34 -4 -45 -8z"/>
<path d="M2643 2600 c-21 -16 -20 -17 23 -17 24 0 44 1 44 3 0 1 -10 8 -23 17
-20 13 -25 13 -44 -3z"/>
<path d="M3665 2610 c-3 -5 -1 -10 4 -10 6 0 11 5 11 10 0 6 -2 10 -4 10 -3 0
-8 -4 -11 -10z"/>
<path d="M4133 2613 c9 -2 25 -2 35 0 9 3 1 5 -18 5 -19 0 -27 -2 -17 -5z"/>
<path d="M1845 2535 c2 -44 4 -82 5 -85 0 -3 5 2 10 10 5 8 35 20 67 27 l58
12 -59 -5 c-65 -6 -76 1 -76 49 0 20 5 27 20 27 11 0 20 -7 20 -15 0 -23 24
-18 53 13 28 29 33 42 19 42 -5 0 -14 -11 -20 -25 -11 -24 -13 -25 -36 -10
-13 8 -30 13 -39 9 -10 -3 -17 1 -21 13 -3 10 -3 -18 -1 -62z"/>
<path d="M3830 2595 c-21 -25 -8 -50 28 -53 28 -3 32 0 31 20 -1 17 -3 18 -6
6 -3 -11 -14 -18 -29 -18 -21 0 -25 4 -22 23 3 20 9 22 58 22 54 0 55 -1 53
-28 -1 -15 2 -25 8 -22 13 9 11 39 -3 53 -17 17 -103 15 -118 -3z"/>
<path d="M1363 2583 c9 -2 23 -2 30 0 6 3 -1 5 -18 5 -16 0 -22 -2 -12 -5z"/>
<path d="M1573 2573 c24 -3 35 -8 31 -15 -5 -8 -1 -9 10 -5 10 4 20 7 22 7 2
0 4 5 4 10 0 6 -23 9 -52 8 -44 -1 -47 -2 -15 -5z"/>
<path d="M3743 2545 c0 -22 2 -30 4 -17 2 12 2 30 0 40 -3 9 -5 -1 -4 -23z"/>
<path d="M4138 2573 c12 -2 30 -2 40 0 9 3 -1 5 -23 4 -22 0 -30 -2 -17 -4z"/>
<path d="M1508 2563 c7 -3 16 -2 19 1 4 3 -2 6 -13 5 -11 0 -14 -3 -6 -6z"/>
<path d="M3255 2540 c0 -15 3 -26 8 -23 4 2 7 13 7 23 0 10 -3 21 -7 23 -5 3
-8 -8 -8 -23z"/>
<path d="M3625 2515 c-6 -48 -9 -55 -29 -55 -31 0 -59 23 -54 46 5 28 36 30
47 2 7 -21 9 -19 13 15 2 20 0 37 -4 37 -4 0 -8 -5 -8 -11 0 -6 -6 -9 -12 -6
-24 8 -48 -13 -48 -43 0 -22 -5 -30 -22 -33 -13 -2 5 -7 40 -12 34 -4 65 -12
68 -16 3 -5 16 -9 30 -9 19 0 25 -5 22 -17 -4 -21 -48 -31 -48 -12 0 9 -3 10
-11 2 -8 -8 -26 -7 -66 4 -30 8 -57 12 -60 9 -5 -5 63 -26 84 -26 6 0 18 -6
26 -14 22 -23 82 10 82 44 0 20 -4 25 -23 22 -23 -2 -23 -1 -17 63 9 79 0 88
-10 10z"/>
<path d="M4243 2563 c9 -2 23 -2 30 0 6 3 -1 5 -18 5 -16 0 -22 -2 -12 -5z"/>
<path d="M3232 2535 c0 -16 2 -22 5 -12 2 9 2 23 0 30 -3 6 -5 -1 -5 -18z"/>
<path d="M4285 2550 c-4 -6 5 -10 19 -10 14 0 26 5 26 10 0 6 -9 10 -19 10
-11 0 -23 -4 -26 -10z"/>
<path d="M1338 2543 c7 -3 16 -2 19 1 4 3 -2 6 -13 5 -11 0 -14 -3 -6 -6z"/>
<path d="M1560 2540 c-8 -5 -10 -10 -5 -10 6 0 17 5 25 10 8 5 11 10 5 10 -5
0 -17 -5 -25 -10z"/>
<path d="M1288 2533 c6 -2 18 -2 25 0 6 3 1 5 -13 5 -14 0 -19 -2 -12 -5z"/>
<path d="M4168 2533 c18 -2 45 -2 60 0 15 2 0 4 -33 4 -33 0 -45 -2 -27 -4z"/>
<path d="M1238 2523 c7 -3 16 -2 19 1 4 3 -2 6 -13 5 -11 0 -14 -3 -6 -6z"/>
<path d="M1520 2520 c-27 -17 -2 -21 67 -11 l68 10 -57 -3 c-32 -1 -59 1 -60
5 -2 5 -10 4 -18 -1z"/>
<path d="M4020 2514 c0 -12 40 -27 49 -19 2 3 -1 5 -7 5 -21 0 -13 18 11 23
12 2 5 4 -15 3 -21 0 -38 -6 -38 -12z"/>
<path d="M1150 2508 c-22 -10 -23 -12 -6 -16 10 -2 21 0 25 6 3 5 15 12 26 15
l20 5 -20 0 c-11 0 -31 -4 -45 -10z"/>
<path d="M1741 2504 c0 -11 3 -14 6 -6 3 7 2 16 -1 19 -3 4 -6 -2 -5 -13z"/>
<path d="M1308 2493 c12 -2 32 -2 45 0 12 2 2 4 -23 4 -25 0 -35 -2 -22 -4z"/>
<path d="M1416 2491 c-4 -7 -5 -15 -2 -18 9 -9 19 4 14 18 -4 11 -6 11 -12 0z"/>
<path d="M3910 2480 c-14 -4 -41 -9 -60 -10 l-35 -2 31 -8 c18 -4 46 -17 63
-30 18 -12 35 -20 38 -17 2 3 -9 13 -26 22 -34 17 -41 35 -13 35 9 0 24 5 32
10 18 11 5 11 -30 0z"/>
<path d="M725 2468 c-25 -71 -47 -258 -30 -258 12 0 205 101 205 107 0 15 -87
117 -119 139 -40 27 -50 29 -56 12z"/>
<path d="M3244 2465 c-4 -8 -4 -22 0 -30 6 -16 36 -21 36 -5 0 5 -7 7 -15 4
-10 -4 -15 0 -15 15 0 23 15 29 23 9 3 -8 6 -6 6 5 1 21 -27 23 -35 2z"/>
<path d="M3732 2455 c0 -16 2 -22 5 -12 2 9 2 23 0 30 -3 6 -5 -1 -5 -18z"/>
<path d="M4011 2464 c0 -11 3 -14 6 -6 3 7 2 16 -1 19 -3 4 -6 -2 -5 -13z"/>
<path d="M4138 2473 c6 -2 18 -2 25 0 6 3 1 5 -13 5 -14 0 -19 -2 -12 -5z"/>
<path d="M4692 2444 c-37 -32 -102 -113 -102 -128 0 -3 45 -28 100 -56 84 -42
101 -48 107 -35 15 42 -27 255 -52 255 -6 0 -30 -16 -53 -36z"/>
<path d="M1348 2453 c7 -3 16 -2 19 1 4 3 -2 6 -13 5 -11 0 -14 -3 -6 -6z"/>
<path d="M1432 2440 c0 -14 2 -19 5 -12 2 6 2 18 0 25 -3 6 -5 1 -5 -13z"/>
<path d="M4248 2453 c6 -2 18 -2 25 0 6 3 1 5 -13 5 -14 0 -19 -2 -12 -5z"/>
<path d="M1308 2443 c7 -3 16 -2 19 1 4 3 -2 6 -13 5 -11 0 -14 -3 -6 -6z"/>
<path d="M1635 2440 c-16 -7 -17 -9 -3 -9 9 -1 19 -7 21 -13 3 -7 6 -3 6 10 1
12 0 22 -1 21 -2 0 -12 -4 -23 -9z"/>
<path d="M1751 2434 c0 -11 3 -14 6 -6 3 7 2 16 -1 19 -3 4 -6 -2 -5 -13z"/>
<path d="M1930 2435 c-25 -8 -53 -12 -62 -9 -15 5 -16 2 -7 -25 6 -17 13 -31
16 -31 3 0 2 7 -1 15 -6 16 31 38 47 28 10 -6 9 -43 -1 -43 -5 0 -17 -7 -28
-15 -18 -14 -17 -14 10 -5 20 7 32 7 42 -1 11 -9 15 -7 20 6 5 11 1 21 -9 27
-24 13 -22 48 2 48 11 0 23 5 26 10 8 13 0 12 -55 -5z"/>
<path d="M4290 2440 c0 -5 9 -10 21 -10 11 0 17 5 14 10 -3 6 -13 10 -21 10
-8 0 -14 -4 -14 -10z"/>
<path d="M1268 2433 c7 -3 16 -2 19 1 4 3 -2 6 -13 5 -11 0 -14 -3 -6 -6z"/>
<path d="M1520 2407 c0 -13 3 -17 8 -11 4 6 14 13 22 16 10 3 8 6 -8 10 -18 5
-22 2 -22 -15z"/>
<path d="M1578 2423 c6 -2 18 -2 25 0 6 3 1 5 -13 5 -14 0 -19 -2 -12 -5z"/>
<path d="M4003 2402 c-3 -12 -3 -26 1 -29 3 -4 6 4 6 16 0 12 4 19 10 16 6 -3
10 -2 10 4 0 5 12 12 28 14 18 3 15 4 -11 4 -31 -1 -39 -5 -44 -25z"/>
<path d="M3190 2396 c0 -14 4 -27 8 -30 5 -3 6 8 4 25 -5 35 -12 38 -12 5z"/>
<path d="M3218 2393 c5 -21 7 -23 10 -9 2 10 0 22 -6 28 -6 6 -7 0 -4 -19z"/>
<path d="M3721 2404 c0 -11 3 -14 6 -6 3 7 2 16 -1 19 -3 4 -6 -2 -5 -13z"/>
<path d="M1150 2400 c-8 -5 -11 -12 -8 -16 4 -3 14 1 23 10 18 17 9 21 -15 6z"/>
<path d="M1440 2385 c-1 -11 -2 -24 -1 -29 1 -4 -6 -15 -16 -23 -16 -13 -16
-13 5 -3 16 8 22 8 22 -1 0 -7 2 -10 4 -8 2 2 0 22 -4 44 -4 22 -9 31 -10 20z"/>
<path d="M2985 2380 c3 -5 10 -10 16 -10 5 0 9 5 9 10 0 6 -7 10 -16 10 -8 0
-12 -4 -9 -10z"/>
<path d="M1228 2373 c34 -2 88 -2 120 0 31 2 3 3 -63 3 -66 0 -92 -1 -57 -3z"/>
<path d="M3040 2370 c0 -5 5 -10 10 -10 6 0 10 5 10 10 0 6 -4 10 -10 10 -5 0
-10 -4 -10 -10z"/>
<path d="M3140 2370 c0 -5 5 -10 10 -10 6 0 10 5 10 10 0 6 -4 10 -10 10 -5 0
-10 -4 -10 -10z"/>
<path d="M3711 2364 c0 -11 3 -14 6 -6 3 7 2 16 -1 19 -3 4 -6 -2 -5 -13z"/>
<path d="M4108 2373 c7 -3 16 -2 19 1 4 3 -2 6 -13 5 -11 0 -14 -3 -6 -6z"/>
<path d="M3085 2360 c3 -5 13 -10 21 -10 8 0 14 5 14 10 0 6 -9 10 -21 10 -11
0 -17 -4 -14 -10z"/>
<path d="M1771 2354 c-1 -15 30 -106 35 -101 2 2 -5 28 -15 58 -11 30 -20 49
-20 43z"/>
<path d="M3991 2344 c0 -11 3 -14 6 -6 3 7 2 16 -1 19 -3 4 -6 -2 -5 -13z"/>
<path d="M4188 2353 c7 -3 16 -2 19 1 4 3 -2 6 -13 5 -11 0 -14 -3 -6 -6z"/>
<path d="M3692 2303 c-15 -48 -8 -55 8 -8 7 20 10 38 8 41 -3 2 -10 -13 -16
-33z"/>
<path d="M4265 2331 c11 -3 -47 -8 -130 -11 -140 -5 -150 -6 -153 -25 -3 -19
-2 -19 11 -2 12 15 34 17 168 17 138 1 152 2 135 15 -11 8 -27 14 -35 14 -11
-1 -10 -3 4 -8z"/>
<path d="M1880 2312 c0 -7 8 -12 17 -10 24 4 27 24 3 24 -11 0 -20 -6 -20 -14z"/>
<path d="M3798 2265 c38 -18 34 -35 -8 -35 -16 0 -31 -4 -34 -8 -3 -5 8 -6 24
-4 19 3 35 -3 50 -18 23 -23 51 -23 58 0 4 12 3 13 -10 2 -20 -16 -48 -5 -48
18 0 27 13 31 43 15 15 -8 27 -10 27 -5 0 5 -24 16 -52 26 -75 24 -88 27 -50
9z"/>
<path d="M1433 2253 c39 -4 45 -11 25 -32 -11 -10 -10 -11 3 -6 10 4 20 -2 28
-17 8 -16 10 -17 5 -3 -4 11 -9 30 -11 43 -5 19 -11 22 -47 20 l-41 -1 38 -4z"/>
<path d="M1175 2240 c-3 -5 1 -10 9 -10 9 0 16 5 16 10 0 6 -4 10 -9 10 -6 0
-13 -4 -16 -10z"/>
<path d="M1323 2243 c9 -2 25 -2 35 0 9 3 1 5 -18 5 -19 0 -27 -2 -17 -5z"/>
<path d="M1622 2228 c-62 -25 -64 -35 -2 -13 56 20 57 19 29 -12 -23 -26 -23
-26 13 2 61 50 48 57 -40 23z"/>
<path d="M3666 2235 c-9 -26 -7 -32 5 -12 6 10 9 21 6 23 -2 3 -7 -2 -11 -11z"/>
<path d="M1233 2233 c9 -2 25 -2 35 0 9 3 1 5 -18 5 -19 0 -27 -2 -17 -5z"/>
<path d="M1810 2235 c0 -5 5 -17 10 -25 5 -8 10 -10 10 -5 0 6 -5 17 -10 25
-5 8 -10 11 -10 5z"/>
<path d="M3961 2224 c0 -11 3 -14 6 -6 3 7 2 16 -1 19 -3 4 -6 -2 -5 -13z"/>
<path d="M4110 2230 c8 -5 20 -10 25 -10 6 0 3 5 -5 10 -8 5 -19 10 -25 10 -5
0 -3 -5 5 -10z"/>
<path d="M1328 2154 c-49 -24 -88 -46 -88 -49 0 -3 41 15 90 40 50 25 90 47
90 50 0 7 5 9 -92 -41z"/>
<path d="M1681 2183 c-19 -8 -42 -12 -52 -10 -17 5 -47 -18 -37 -28 5 -6 110
33 123 46 12 12 8 11 -34 -8z"/>
<path d="M3947 2179 c-3 -12 -3 -18 0 -15 4 3 12 1 19 -5 9 -8 11 -5 7 11 -8
29 -20 33 -26 9z"/>
<path d="M1836 2177 c3 -10 9 -15 12 -12 3 3 0 11 -7 18 -10 9 -11 8 -5 -6z"/>
<path d="M3740 2184 c0 -4 7 -12 16 -18 22 -17 7 -46 -25 -47 -20 -1 -18 -3
13 -10 22 -5 44 -7 50 -5 6 2 3 5 -6 5 -16 1 -27 31 -12 31 16 0 44 -23 44
-35 0 -8 7 -15 15 -15 8 0 15 3 14 8 0 9 -109 95 -109 86z"/>
<path d="M4008 2183 c6 -2 18 -2 25 0 6 3 1 5 -13 5 -14 0 -19 -2 -12 -5z"/>
<path d="M4083 2173 c9 -2 23 -2 30 0 6 3 -1 5 -18 5 -16 0 -22 -2 -12 -5z"/>
<path d="M4245 2171 c3 -6 -9 -12 -27 -14 -29 -3 -28 -4 10 -5 42 -2 56 10 26
22 -8 3 -12 2 -9 -3z"/>
<path d="M4148 2163 c7 -3 16 -2 19 1 4 3 -2 6 -13 5 -11 0 -14 -3 -6 -6z"/>
<path d="M1680 2109 c-50 -44 -53 -48 -30 -48 37 -1 132 27 99 28 -33 1 -47
30 -23 48 10 7 16 15 13 17 -2 2 -29 -18 -59 -45z m30 -13 c0 -15 -37 -32 -48
-22 -6 6 27 35 41 36 4 0 7 -6 7 -14z"/>
<path d="M1860 2130 c46 -89 163 -229 244 -293 22 -17 0 9 -50 58 -51 50 -115
126 -144 170 -55 85 -71 106 -50 65z"/>
<path d="M1480 2130 l-35 -7 33 -2 c34 -1 40 -9 20 -30 -11 -11 -9 -11 8 -1
14 8 20 20 16 32 -2 10 -5 17 -6 17 0 -1 -17 -5 -36 -9z"/>
<path d="M3610 2120 c-6 -11 -8 -20 -6 -20 3 0 10 9 16 20 6 11 8 20 6 20 -3
0 -10 -9 -16 -20z"/>
<path d="M1408 2113 c7 -3 16 -2 19 1 4 3 -2 6 -13 5 -11 0 -14 -3 -6 -6z"/>
<path d="M3907 2079 c-9 -23 -14 -39 -10 -35 4 3 20 -6 37 -21 l31 -28 -29 33
-30 32 30 1 c25 2 25 2 6 6 -19 4 -23 9 -18 29 10 37 1 28 -17 -17z"/>
<path d="M1217 2093 c-13 -12 -7 -23 11 -22 10 0 12 3 4 6 -6 2 -10 9 -6 14 6
10 0 12 -9 2z"/>
<path d="M1318 2093 c7 -3 16 -2 19 1 4 3 -2 6 -13 5 -11 0 -14 -3 -6 -6z"/>
<path d="M1268 2083 c6 -2 18 -2 25 0 6 3 1 5 -13 5 -14 0 -19 -2 -12 -5z"/>
<path d="M3557 2038 c-45 -65 -145 -168 -214 -221 -64 -48 -71 -61 -8 -16 83
60 197 179 250 262 31 48 10 29 -28 -25z"/>
<path d="M3690 2075 c0 -2 19 -14 43 -26 36 -19 39 -23 22 -29 -17 -6 -15 -8
13 -12 45 -6 40 5 -18 41 -50 31 -60 35 -60 26z"/>
<path d="M4110 2076 c0 -3 14 -12 30 -21 17 -9 30 -13 30 -11 0 3 -13 12 -30
21 -16 9 -30 13 -30 11z"/>
<path d="M1540 2065 c0 -5 5 -17 10 -25 5 -8 10 -10 10 -5 0 6 -5 17 -10 25
-5 8 -10 11 -10 5z"/>
<path d="M1394 2024 c-18 -14 -18 -15 4 -4 12 6 22 13 22 15 0 8 -5 6 -26 -11z"/>
<path d="M1800 2035 c0 -15 -92 -71 -109 -67 -13 3 -13 1 -2 -12 12 -14 15
-14 25 -2 6 8 32 26 57 39 35 18 45 28 38 38 -5 8 -9 10 -9 4z"/>
<path d="M3654 2029 c-7 -12 23 -18 53 -10 28 8 28 8 -10 12 -21 3 -40 2 -43
-2z"/>
<path d="M4188 2027 c11 -13 10 -16 -5 -20 -12 -3 -8 -5 10 -6 33 -1 35 14 5
30 -21 11 -22 11 -10 -4z"/>
<path d="M2453 2022 c-17 -6 -183 -194 -183 -208 0 -7 38 -23 66 -28 16 -3 85
-17 154 -32 185 -39 325 -39 503 -3 76 16 153 31 170 34 46 8 67 15 67 24 0 4
-36 52 -79 106 -50 63 -89 102 -105 106 -14 4 -26 4 -26 0 0 -12 45 -51 58
-51 11 0 103 -105 122 -140 11 -21 8 -23 -75 -40 -318 -64 -293 -60 -328 -42
-17 9 -35 22 -39 27 -5 7 -11 7 -16 0 -4 -5 -22 -18 -40 -27 -32 -17 -37 -17
-205 18 -95 19 -180 38 -190 42 -17 7 -13 15 35 77 30 39 65 75 79 82 26 13
78 64 63 62 -5 -1 -19 -4 -31 -7z"/>
<path d="M1560 2015 c0 -15 18 -40 24 -34 3 3 -1 14 -9 25 -8 10 -14 15 -15 9z"/>
<path d="M4138 2013 c7 -3 16 -2 19 1 4 3 -2 6 -13 5 -11 0 -14 -3 -6 -6z"/>
<path d="M1528 2003 c7 -3 16 -2 19 1 4 3 -2 6 -13 5 -11 0 -14 -3 -6 -6z"/>
<path d="M3690 2006 c0 -7 72 -47 77 -43 2 3 -12 14 -32 26 -36 21 -45 24 -45
17z"/>
<path d="M3848 1962 c-15 -26 -15 -28 0 -28 11 0 18 10 19 28 3 35 1 35 -19 0z"/>
<path d="M3610 1965 c-6 -8 -10 -20 -7 -27 4 -8 6 -7 6 4 1 9 9 22 19 27 9 6
12 11 6 11 -6 0 -17 -7 -24 -15z"/>
<path d="M1539 1953 c-13 -16 -12 -17 4 -4 9 7 17 15 17 17 0 8 -8 3 -21 -13z"/>
<path d="M3688 1936 l37 -34 -20 -23 -20 -22 23 12 c12 6 22 19 22 27 0 18
-53 74 -69 74 -6 0 6 -15 27 -34z"/>
<path d="M1328 1943 c7 -3 16 -2 19 1 4 3 -2 6 -13 5 -11 0 -14 -3 -6 -6z"/>
<path d="M1605 1926 c0 -13 3 -22 8 -19 4 2 7 0 7 -5 0 -6 7 -12 15 -16 17 -6
11 10 -17 47 -12 16 -13 15 -13 -7z"/>
<path d="M1796 1929 c-14 -11 -31 -30 -37 -41 -6 -12 5 -5 25 16 37 36 86 49
86 23 0 -21 -79 -80 -97 -73 -13 5 -14 4 -3 -9 10 -13 19 -9 65 27 45 35 52
45 44 60 -13 24 -50 23 -83 -3z"/>
<path d="M3928 1943 c7 -3 16 -2 19 1 4 3 -2 6 -13 5 -11 0 -14 -3 -6 -6z"/>
<path d="M1484 1908 l-19 -23 23 19 c21 18 27 26 19 26 -2 0 -12 -10 -23 -22z"/>
<path d="M4113 1885 c7 -14 18 -25 26 -25 10 0 7 8 -9 25 -29 31 -31 31 -17 0z"/>
<path d="M1560 1890 c-9 -6 -10 -10 -3 -10 6 0 15 5 18 10 8 12 4 12 -15 0z"/>
<path d="M3579 1877 c23 -26 23 -57 -1 -57 -6 0 -23 10 -37 22 -14 13 -4 -1
23 -29 28 -29 52 -50 55 -47 3 3 -2 11 -12 18 -21 16 -22 30 -2 46 11 10 18 9
30 -4 9 -9 19 -16 22 -16 10 0 -40 50 -72 73 l-30 21 24 -27z"/>
<path d="M1439 1873 c-13 -16 -12 -17 4 -4 9 7 17 15 17 17 0 8 -8 3 -21 -13z"/>
<path d="M1520 1870 c-9 -6 -10 -10 -3 -10 6 0 15 5 18 10 8 12 4 12 -15 0z"/>
<path d="M1599 1863 c-13 -16 -12 -17 4 -4 9 7 17 15 17 17 0 8 -8 3 -21 -13z"/>
<path d="M1877 1834 c-26 -25 -47 -48 -47 -52 0 -3 15 8 33 26 18 18 38 32 44
32 10 0 27 29 20 36 -1 1 -24 -18 -50 -42z"/>
<path d="M2563 1869 c9 -6 15 -14 12 -20 -4 -5 3 -9 14 -9 11 0 46 -11 77 -25
36 -16 52 -20 44 -10 -15 18 -128 75 -149 75 -14 -1 -13 -2 2 -11z"/>
<path d="M2885 1860 c-27 -11 -63 -31 -80 -45 l-30 -25 58 25 c32 14 67 25 78
25 11 0 18 4 14 9 -3 6 3 14 12 20 28 16 3 12 -52 -9z"/>
<path d="M1660 1855 c6 -8 9 -19 5 -25 -3 -5 -1 -10 5 -10 6 0 9 -4 6 -8 -2
-4 4 -8 14 -8 16 0 15 4 -7 33 -14 18 -28 33 -30 33 -3 0 0 -7 7 -15z"/>
<path d="M3986 1810 c34 -36 64 -72 66 -80 3 -8 7 -10 11 -4 3 6 -26 42 -66
80 l-72 69 61 -65z"/>
<path d="M1480 1850 c-9 -6 -10 -10 -3 -10 6 0 15 5 18 10 8 12 4 12 -15 0z"/>
<path d="M3775 1851 c-3 -5 2 -11 10 -15 8 -3 17 -1 20 3 3 5 -2 11 -10 15 -8
3 -17 1 -20 -3z"/>
<path d="M1370 1815 c-19 -19 -31 -35 -27 -35 14 0 77 29 77 35 0 3 -9 1 -19
-5 -32 -17 -36 -12 -11 15 13 14 21 25 19 25 -3 0 -20 -16 -39 -35z"/>
<path d="M1440 1830 c-9 -6 -10 -10 -3 -10 6 0 15 5 18 10 8 12 4 12 -15 0z"/>
<path d="M3837 1829 c7 -7 15 -10 18 -7 3 3 -2 9 -12 12 -14 6 -15 5 -6 -5z"/>
<path d="M1515 1788 l-40 -43 43 40 c39 36 47 45 39 45 -2 0 -21 -19 -42 -42z"/>
<path d="M1925 1800 c-17 -18 -31 -26 -35 -20 -4 6 -12 -1 -18 -15 -8 -16 -8
-25 -1 -25 14 0 107 89 93 90 -5 0 -23 -14 -39 -30z"/>
<path d="M3716 1775 l-47 -55 45 -48 c25 -26 46 -52 46 -59 0 -13 108 -108
115 -101 2 2 -34 42 -80 88 -79 78 -103 111 -72 95 6 -4 1 2 -13 13 -24 20
-24 21 -6 41 l19 21 31 -27 31 -28 -24 28 c-17 19 -20 27 -10 27 12 0 12 2 -1
10 -12 7 -12 12 4 29 11 12 17 21 14 21 -2 0 -26 -25 -52 -55z"/>
<path d="M3840 1785 c19 -19 36 -35 39 -35 3 0 -10 16 -29 35 -19 19 -36 35
-39 35 -3 0 10 -16 29 -35z"/>
<path d="M659 1793 c36 -68 241 -325 349 -436 l65 -68 14 33 c21 50 27 121 14
175 -15 64 -42 124 -52 117 -17 -10 -260 107 -368 178 -33 21 -34 21 -22 1z"/>
<path d="M1604 1794 c-18 -14 -18 -15 4 -4 12 6 22 13 22 15 0 8 -5 6 -26 -11z"/>
<path d="M2154 1801 c7 -11 46 -35 46 -28 0 3 -12 12 -26 22 -15 9 -23 12 -20
6z"/>
<path d="M3459 1793 c-8 -9 -9 -14 -3 -10 11 6 63 -43 81 -76 9 -17 10 -17 24
-1 8 11 9 15 2 11 -13 -8 -90 69 -85 85 3 13 -4 9 -19 -9z"/>
<path d="M4790 1784 c-46 -33 -309 -162 -339 -167 -53 -8 -87 -173 -55 -273
l18 -58 79 85 c128 136 364 440 340 439 -4 -1 -24 -12 -43 -26z"/>
<path d="M1570 1695 c-52 -52 -91 -97 -88 -101 7 -6 122 69 133 87 4 6 -15 -6
-43 -25 -27 -20 -53 -36 -58 -36 -5 0 29 38 76 85 47 47 82 85 80 85 -3 0 -48
-43 -100 -95z"/>
<path d="M1717 1779 c13 -13 7 -35 -16 -64 -9 -11 -2 -8 15 8 17 15 35 24 40
20 5 -5 -2 4 -15 20 -14 15 -27 27 -30 27 -3 0 0 -5 6 -11z"/>
<path d="M2010 1780 c0 -20 -60 -90 -77 -90 -13 0 -13 -3 -3 -15 15 -18 28
-19 26 -2 -1 15 55 82 74 89 9 3 8 7 -4 17 -12 10 -16 10 -16 1z"/>
<path d="M3248 1754 c-38 -20 -36 -28 2 -9 17 9 30 18 30 20 0 7 -1 6 -32 -11z"/>
<path d="M1435 1719 c-14 -17 -24 -34 -21 -36 5 -5 66 25 66 33 0 2 -9 0 -20
-6 -24 -13 -26 -3 -3 22 9 10 14 18 10 18 -3 0 -17 -14 -32 -31z"/>
<path d="M1504 1734 c-18 -14 -18 -15 4 -4 12 6 22 13 22 15 0 8 -5 6 -26 -11z"/>
<path d="M1679 1729 l-24 -20 28 17 c15 9 27 18 27 20 0 8 -8 4 -31 -17z"/>
<path d="M2240 1745 c0 -7 81 -47 86 -43 2 3 -17 14 -41 26 -25 12 -45 20 -45
17z"/>
<path d="M4010 1740 c8 -5 20 -10 25 -10 6 0 3 5 -5 10 -8 5 -19 10 -25 10 -5
0 -3 -5 5 -10z"/>
<path d="M1725 1690 c-25 -25 -34 -38 -22 -36 18 2 77 54 77 68 0 15 -15 6
-55 -32z"/>
<path d="M3940 1698 c18 -21 30 -38 24 -38 -5 0 -1 -5 9 -11 35 -21 26 -2 -21
42 -37 35 -40 36 -12 7z"/>
<path d="M3860 1716 c0 -3 9 -10 20 -16 11 -6 20 -8 20 -6 0 3 -9 10 -20 16
-11 6 -20 8 -20 6z"/>
<path d="M1750 1660 c-24 -22 -46 -37 -49 -34 -6 6 -131 -117 -131 -129 0 -5
30 19 67 52 37 33 69 58 72 55 3 -2 -24 -34 -59 -69 -36 -36 -60 -65 -55 -65
5 0 31 21 57 47 26 26 48 43 48 37 0 -5 -18 -28 -40 -49 -22 -21 -40 -44 -40
-49 0 -6 29 19 65 54 36 35 65 61 65 56 0 -4 -25 -37 -56 -72 -31 -36 -55 -67
-52 -69 3 -3 38 31 78 75 40 45 75 79 77 76 3 -3 -25 -44 -61 -91 -37 -47 -63
-85 -59 -84 4 0 37 34 72 75 35 41 66 73 69 70 2 -3 -20 -38 -50 -78 -30 -40
-58 -80 -62 -88 -10 -19 40 33 76 80 37 47 45 33 10 -16 -50 -69 -68 -100 -51
-86 28 21 111 132 100 132 -12 0 49 100 62 100 10 0 9 -28 -3 -35 -5 -3 -19
-19 -30 -35 -15 -21 -17 -30 -8 -30 7 0 24 18 38 40 14 22 27 40 31 40 18 0
16 -17 -3 -39 -13 -14 -15 -19 -5 -12 14 11 17 11 17 0 0 -8 5 -6 13 6 8 10
19 15 25 11 31 -19 6 5 -47 47 -58 45 -60 45 -77 26 -9 -10 -19 -17 -22 -14
-3 3 3 14 13 25 10 11 15 23 12 26 -4 4 -15 -4 -26 -17 -11 -13 -20 -20 -21
-15 0 5 7 17 16 27 14 16 14 19 -3 38 -9 12 -20 21 -23 21 -3 -1 -25 -18 -50
-40z m140 -58 c0 -5 -9 -17 -20 -27 -23 -21 -26 -14 -8 15 13 20 28 27 28 12z"/>
<path d="M3630 1685 c-11 -13 -9 -20 10 -40 13 -14 19 -25 13 -25 -5 0 -18 9
-28 20 -18 20 -18 20 -46 -6 -16 -15 -26 -31 -23 -35 3 -5 -1 -7 -8 -4 -7 2
-29 -9 -48 -25 -19 -17 -28 -28 -20 -25 10 4 22 -7 34 -29 12 -22 23 -33 33
-29 11 4 7 13 -17 38 -31 32 -32 33 -12 44 24 13 43 15 23 2 -11 -7 -7 -18 18
-54 35 -51 39 -66 14 -46 -9 8 12 -21 47 -64 35 -42 65 -75 68 -73 2 3 -17 34
-43 70 -58 82 -47 86 19 6 67 -81 77 -81 16 0 -47 62 -43 67 9 11 65 -70 66
-58 1 22 -71 88 -62 95 15 12 84 -91 84 -75 0 23 -36 41 -65 80 -65 86 0 6 37
-25 82 -69 44 -44 72 -66 60 -50 -11 17 -34 44 -52 60 -38 36 -78 89 -62 84 6
-2 37 -29 69 -59 86 -82 106 -93 41 -23 -32 34 -58 64 -58 68 0 8 77 -51 85
-66 4 -5 16 -14 28 -20 12 -6 -5 16 -37 49 -33 34 -63 59 -67 57 -11 -7 -95
72 -86 81 4 4 25 -9 46 -30 21 -21 41 -33 45 -28 5 8 -73 82 -87 82 -2 0 -10
-7 -17 -15z m-10 -65 c6 -11 7 -20 2 -20 -10 0 -32 21 -32 32 0 16 19 8 30
-12z m-24 -17 c20 -27 16 -38 -6 -18 -20 18 -26 35 -14 35 4 0 13 -8 20 -17z"/>
<path d="M3035 1660 c-13 -6 -15 -9 -5 -9 8 0 22 4 30 9 18 12 2 12 -25 0z"/>
<path d="M3770 1666 c0 -2 8 -10 18 -17 15 -13 16 -12 3 4 -13 16 -21 21 -21
13z"/>
<path d="M1595 1600 c-32 -33 -57 -62 -54 -65 6 -5 139 102 139 112 0 4 -13
-5 -28 -20 -38 -37 -53 -34 -17 3 16 17 27 30 24 30 -3 0 -31 -27 -64 -60z"/>
<path d="M2448 1653 c7 -3 16 -2 19 1 4 3 -2 6 -13 5 -11 0 -14 -3 -6 -6z"/>
<path d="M3840 1656 c0 -2 8 -10 18 -17 15 -13 16 -12 3 4 -13 16 -21 21 -21
13z"/>
<path d="M2988 1643 c7 -3 16 -2 19 1 4 3 -2 6 -13 5 -11 0 -14 -3 -6 -6z"/>
<path d="M3284 1628 c0 -10 3 -18 7 -18 4 0 10 -8 12 -17 4 -17 5 -17 6 0 0 9
9 17 19 17 13 0 14 2 3 9 -7 5 -11 13 -8 17 3 5 -5 9 -17 9 -14 0 -22 -6 -22
-17z"/>
<path d="M2211 1631 c-1 -8 -8 -11 -22 -8 -16 4 -18 3 -8 -9 9 -11 8 -18 -2
-31 -13 -16 -12 -17 4 -4 15 12 20 12 33 -5 9 -10 13 -13 9 -6 -4 7 -1 19 5
27 8 10 9 15 2 15 -6 0 -13 8 -15 18 -3 9 -5 11 -6 3z"/>
<path d="M2948 1633 c7 -3 16 -2 19 1 4 3 -2 6 -13 5 -11 0 -14 -3 -6 -6z"/>
<path d="M3810 1636 c0 -2 8 -10 18 -17 15 -13 16 -12 3 4 -13 16 -21 21 -21
13z"/>
<path d="M2578 1623 c6 -2 18 -2 25 0 6 3 1 5 -13 5 -14 0 -19 -2 -12 -5z"/>
<path d="M2883 1623 c9 -2 23 -2 30 0 6 3 -1 5 -18 5 -16 0 -22 -2 -12 -5z"/>
<path d="M2688 1613 c34 -2 88 -2 120 0 31 2 3 3 -63 3 -66 0 -92 -1 -57 -3z"/>
<path d="M3900 1592 c0 -7 -4 -10 -10 -7 -22 14 -8 -4 15 -19 28 -18 33 -10
10 20 -9 12 -14 14 -15 6z"/>
<path d="M3105 1560 c-3 -6 1 -7 9 -4 18 7 21 14 7 14 -6 0 -13 -4 -16 -10z"/>
<path d="M2385 1549 c-4 -6 -5 -12 -2 -15 2 -3 7 2 10 11 7 17 1 20 -8 4z"/>
<path d="M2480 1525 c0 -8 2 -15 4 -15 2 0 6 7 10 15 3 8 1 15 -4 15 -6 0 -10
-7 -10 -15z"/>
<path d="M3026 1531 c-3 -5 1 -11 9 -15 8 -3 15 -1 15 4 0 13 -18 22 -24 11z"/>
<path d="M3430 1519 c-23 -18 -23 -19 -2 -9 16 8 22 8 22 -1 0 -7 3 -9 7 -5 4
3 23 -8 42 -26 34 -32 34 -31 -4 12 -22 25 -40 46 -40 47 0 1 -11 -7 -25 -18z"/>
<path d="M2009 1512 c6 -11 23 -22 38 -25 26 -5 27 -4 8 10 -11 8 -28 19 -38
24 -16 9 -17 8 -8 -9z"/>
<path d="M3143 1519 c9 -5 17 -18 18 -27 0 -11 2 -12 6 -4 6 15 -14 42 -31 42
-6 0 -3 -5 7 -11z"/>
<path d="M2536 1494 c-4 -14 -5 -28 -3 -31 3 -2 8 8 11 23 4 14 5 28 3 31 -3
2 -8 -8 -11 -23z"/>
<path d="M2944 1506 c-3 -8 -4 -23 -2 -33 3 -11 6 -6 9 15 6 34 2 42 -7 18z"/>
<path d="M3100 1509 c0 -5 5 -7 10 -4 6 3 10 8 10 11 0 2 -4 4 -10 4 -5 0 -10
-5 -10 -11z"/>
<path d="M2880 1506 c0 -2 7 -7 16 -10 8 -3 12 -2 9 4 -6 10 -25 14 -25 6z"/>
<path d="M1890 1485 c-7 -8 -16 -13 -20 -10 -8 5 -104 -134 -97 -141 2 -2 24
22 49 53 25 32 55 70 67 86 12 15 20 27 18 27 -3 0 -10 -7 -17 -15z"/>
<path d="M2700 1458 c0 -23 3 -38 7 -35 3 4 6 20 5 36 0 23 4 31 21 34 18 4
17 5 -5 6 -26 1 -28 -2 -28 -41z"/>
<path d="M3376 1484 c-19 -13 -19 -14 -1 -14 10 0 30 -10 44 -22 l26 -23 -21
25 c-12 14 -23 30 -25 37 -3 8 -9 8 -23 -3z"/>
<path d="M2991 1474 c0 -11 3 -14 6 -6 3 7 2 16 -1 19 -3 4 -6 -2 -5 -13z"/>
<path d="M1910 1460 c-6 -11 -8 -20 -6 -20 3 0 10 9 16 20 6 11 8 20 6 20 -3
0 -10 -9 -16 -20z"/>
<path d="M1959 1453 l-24 -28 28 24 c25 23 32 31 24 31 -2 0 -14 -12 -28 -27z"/>
<path d="M2613 1445 c0 -22 2 -30 4 -17 2 12 2 30 0 40 -3 9 -5 -1 -4 -23z"/>
<path d="M2100 1460 c0 -5 6 -10 14 -10 8 0 17 -6 19 -12 4 -10 6 -10 6 -1 1
7 -8 17 -19 23 -14 7 -20 7 -20 0z"/>
<path d="M2460 1445 c0 -8 4 -15 10 -15 5 0 7 7 4 15 -4 8 -8 15 -10 15 -2 0
-4 -7 -4 -15z"/>
<path d="M2567 1447 c-11 -29 -9 -43 4 -30 6 6 9 19 7 29 -3 18 -4 18 -11 1z"/>
<path d="M3052 1444 c-14 -15 -7 -17 22 -5 15 6 16 9 5 13 -8 3 -20 -1 -27 -8z"/>
<path d="M3293 1443 c-19 -7 -16 -19 6 -19 11 0 17 5 14 13 -3 7 -6 13 -7 12
0 0 -7 -3 -13 -6z"/>
<path d="M3550 1415 c13 -14 26 -25 28 -25 3 0 -5 11 -18 25 -13 14 -26 25
-28 25 -3 0 5 -11 18 -25z"/>
<path d="M1986 1415 c-9 -26 -7 -32 5 -12 6 10 9 21 6 23 -2 3 -7 -2 -11 -11z"/>
<path d="M1919 1403 c-13 -16 -12 -17 4 -4 9 7 17 15 17 17 0 8 -8 3 -21 -13z"/>
<path d="M2870 1410 c0 -5 5 -10 11 -10 5 0 7 5 4 10 -3 6 -8 10 -11 10 -2 0
-4 -4 -4 -10z"/>
<path d="M3455 1400 c10 -11 20 -20 23 -20 3 0 -3 9 -13 20 -10 11 -20 20 -23
20 -3 0 3 -9 13 -20z"/>
<path d="M1870 1390 c-6 -11 -8 -20 -6 -20 3 0 10 9 16 20 6 11 8 20 6 20 -3
0 -10 -9 -16 -20z"/>
<path d="M2121 1394 c0 -11 3 -14 6 -6 3 7 2 16 -1 19 -3 4 -6 -2 -5 -13z"/>
<path d="M2700 1399 c0 -5 9 -9 20 -9 11 0 20 2 20 4 0 2 -9 6 -20 9 -11 3
-20 1 -20 -4z"/>
<path d="M3335 1390 c10 -11 20 -20 23 -20 3 0 -3 9 -13 20 -10 11 -20 20 -23
20 -3 0 3 -9 13 -20z"/>
<path d="M2039 1383 c-13 -16 -12 -17 4 -4 16 13 21 21 13 21 -2 0 -10 -8 -17
-17z"/>
<path d="M2243 1394 c4 -4 -1 -17 -10 -28 -13 -16 -11 -15 9 3 29 25 30 24 42
-24 2 -11 4 -4 3 15 -2 29 -6 36 -27 38 -14 2 -22 0 -17 -4z"/>
<path d="M3175 1389 c-19 -8 -19 -9 1 -6 12 1 32 -7 45 -18 l23 -20 -20 27
c-21 30 -21 30 -49 17z"/>
<path d="M3595 1390 c3 -5 1 -10 -5 -10 -6 0 4 -18 22 -39 18 -22 35 -38 37
-36 4 5 -48 95 -55 95 -3 0 -2 -4 1 -10z"/>
<path d="M1889 1363 c-13 -16 -12 -17 4 -4 9 7 17 15 17 17 0 8 -8 3 -21 -13z"/>
<path d="M3301 1364 c0 -11 3 -14 6 -6 3 7 2 16 -1 19 -3 4 -6 -2 -5 -13z"/>
<path d="M3045 1350 c-11 -5 -15 -9 -8 -9 7 -1 14 -20 16 -43 l4 -43 1 48 c2
51 8 57 28 30 12 -16 12 -16 7 5 -6 23 -16 26 -48 12z"/>
<path d="M3490 1356 c0 -2 8 -10 18 -17 15 -13 16 -12 3 4 -13 16 -21 21 -21
13z"/>
<path d="M2393 1343 c4 -3 1 -13 -5 -22 -8 -10 -4 -9 9 3 26 22 30 16 36 -49
3 -36 4 -35 5 11 2 39 -2 53 -14 58 -21 8 -39 8 -31 -1z"/>
<path d="M3182 1320 c0 -14 2 -19 5 -12 2 6 2 18 0 25 -3 6 -5 1 -5 -13z"/>
<path d="M3550 1321 c15 -29 12 -35 -7 -20 -10 7 -7 1 7 -14 13 -16 26 -24 28
-18 3 10 -25 71 -34 71 -2 0 0 -9 6 -19z"/>
<path d="M1848 1323 c-15 -4 -33 -32 -25 -39 2 -2 14 7 27 21 13 14 22 24 19
24 -2 -1 -11 -3 -21 -6z"/>
<path d="M2924 1316 c-3 -8 -4 -23 -1 -33 3 -11 5 -7 6 11 1 21 5 27 16 22 8
-3 15 -1 15 4 0 16 -30 12 -36 -4z"/>
<path d="M2530 1298 c-10 -22 -10 -22 4 -4 8 10 18 16 23 13 4 -2 17 -1 28 4
16 6 14 8 -12 8 -24 1 -35 -5 -43 -21z"/>
<path d="M2863 1313 c9 -2 23 -2 30 0 6 3 -1 5 -18 5 -16 0 -22 -2 -12 -5z"/>
<path d="M2698 1303 c17 -2 47 -2 65 0 17 2 3 4 -33 4 -36 0 -50 -2 -32 -4z"/>
<path d="M2808 1303 c6 -2 18 -2 25 0 6 3 1 5 -13 5 -14 0 -19 -2 -12 -5z"/>
<path d="M2271 1284 c0 -11 3 -14 6 -6 3 7 2 16 -1 19 -3 4 -6 -2 -5 -13z"/>
<path d="M2350 1260 c-11 -22 -18 -40 -15 -40 2 0 14 18 25 40 11 22 18 40 15
40 -2 0 -14 -18 -25 -40z"/>
<path d="M2801 1274 c0 -11 3 -14 6 -6 3 7 2 16 -1 19 -3 4 -6 -2 -5 -13z"/>
<path d="M2574 1155 c0 -71 1 -99 3 -62 2 37 2 96 0 130 -2 34 -3 4 -3 -68z"/>
<path d="M1940 1255 c-7 -8 -16 -12 -21 -9 -5 3 -9 -3 -9 -12 0 -15 4 -14 25
6 14 13 25 25 25 27 0 7 -8 2 -20 -12z"/>
<path d="M2792 1230 c0 -14 2 -19 5 -12 2 6 2 18 0 25 -3 6 -5 1 -5 -13z"/>
<path d="M904 1168 c-32 -40 -73 -92 -92 -115 -19 -24 -32 -43 -29 -43 3 0 42
46 87 103 107 131 103 127 97 127 -2 0 -31 -33 -63 -72z"/>
<path d="M3471 1232 c-1 -8 -6 -10 -13 -6 -7 4 -5 -1 4 -11 21 -22 29 -18 17
10 -4 11 -8 14 -8 7z"/>
<path d="M4588 1175 c33 -38 79 -90 102 -115 41 -44 41 -44 12 -5 -17 22 -63
74 -102 115 l-72 75 60 -70z"/>
<path d="M3202 1210 c0 -14 2 -19 5 -12 2 6 2 18 0 25 -3 6 -5 1 -5 -13z"/>
<path d="M2733 1170 c0 -25 2 -35 4 -22 2 12 2 32 0 45 -2 12 -4 2 -4 -23z"/>
<path d="M3063 1175 c0 -22 2 -30 4 -17 2 12 2 30 0 40 -3 9 -5 -1 -4 -23z"/>
<path d="M927 1080 c-48 -61 -85 -110 -83 -110 5 0 157 185 170 208 18 30 -5
4 -87 -98z"/>
<path d="M2091 1169 c-13 -11 -22 -22 -19 -24 2 -3 15 6 28 20 28 30 24 32 -9
4z"/>
<path d="M2422 1165 c0 -16 2 -22 5 -12 2 9 2 23 0 30 -3 6 -5 -1 -5 -18z"/>
<path d="M3161 1185 c0 -5 6 -21 14 -35 8 -14 14 -20 14 -15 0 6 -6 21 -14 35
-8 14 -14 21 -14 15z"/>
<path d="M4518 1145 c22 -27 66 -77 97 -110 l57 -60 -50 60 c-28 33 -72 83
-97 110 l-47 50 40 -50z"/>
<path d="M2782 1155 c0 -16 2 -22 5 -12 2 9 2 23 0 30 -3 6 -5 -1 -5 -18z"/>
<path d="M2871 1164 c0 -11 3 -14 6 -6 3 7 2 16 -1 19 -3 4 -6 -2 -5 -13z"/>
<path d="M3211 1164 c0 -11 3 -14 6 -6 3 7 2 16 -1 19 -3 4 -6 -2 -5 -13z"/>
<path d="M3351 1163 c16 -27 29 -30 29 -6 0 9 -3 13 -7 10 -3 -4 -13 -1 -21 6
-13 11 -14 9 -1 -10z"/>
<path d="M2240 1110 c0 -16 4 -30 8 -30 5 0 7 14 4 30 -2 17 -6 30 -8 30 -2 0
-4 -13 -4 -30z"/>
<path d="M2631 1124 c0 -11 3 -14 6 -6 3 7 2 16 -1 19 -3 4 -6 -2 -5 -13z"/>
<path d="M3220 1114 c0 -14 -2 -15 -17 -3 -15 13 -15 12 -4 -8 16 -30 31 -29
31 2 0 14 -2 25 -5 25 -3 0 -5 -7 -5 -16z"/>
<path d="M2772 1085 c0 -16 2 -22 5 -12 2 9 2 23 0 30 -3 6 -5 -1 -5 -18z"/>
<path d="M3072 1082 c-2 -23 -6 -31 -14 -26 -10 5 -10 4 -1 -6 18 -19 25 -7
20 32 l-4 33 -1 -33z"/>
<path d="M2742 1055 c-1 -11 2 -26 7 -33 7 -11 9 -10 14 3 4 9 3 13 -2 10 -5
-3 -12 5 -14 17 -4 20 -4 20 -5 3z"/>
<path d="M1164 1028 c16 -13 38 -30 50 -39 18 -15 19 -19 6 -34 -10 -11 -23
-15 -42 -11 -35 7 -37 -7 -3 -22 22 -10 27 -8 47 18 17 23 24 27 35 18 7 -6
16 -9 18 -6 3 3 -21 23 -52 45 -68 47 -100 64 -59 31z"/>
<path d="M2420 1039 c0 -5 5 -7 10 -4 6 3 10 8 10 11 0 2 -4 4 -10 4 -5 0 -10
-5 -10 -11z"/>
<path d="M2900 1041 c0 -6 5 -13 10 -16 6 -3 10 1 10 9 0 9 -4 16 -10 16 -5 0
-10 -4 -10 -9z"/>
<path d="M4357 1036 c-9 -7 -29 -12 -45 -9 -21 3 -23 2 -8 -5 17 -8 13 -14
-37 -51 -57 -44 -70 -58 -42 -47 10 4 27 -7 46 -29 32 -36 65 -45 87 -23 18
18 15 40 -13 80 -30 44 -30 45 -5 58 17 9 26 2 71 -60 28 -39 53 -69 56 -66 3
2 -18 35 -45 73 -37 50 -47 71 -40 81 14 16 -2 15 -25 -2z m-22 -89 c34 -64
-6 -105 -51 -50 -28 34 -30 51 -6 69 26 20 37 17 57 -19z"/>
<path d="M4180 1019 c-54 -22 -79 -76 -48 -107 8 -8 8 -15 -3 -28 -12 -15 -12
-16 8 -10 19 6 26 -2 58 -58 20 -36 41 -69 47 -72 10 -7 -29 71 -63 124 -12
20 -12 24 1 33 12 9 10 10 -8 6 -15 -4 -25 1 -33 14 -21 40 15 83 84 99 27 7
28 8 7 8 -14 1 -36 -4 -50 -9z"/>
<path d="M1300 936 c0 -3 18 -15 40 -27 60 -34 52 -73 -9 -43 -38 19 -52 11
-50 -29 1 -18 -2 -41 -7 -52 -7 -18 -6 -18 9 -6 9 7 26 11 37 8 28 -7 25 8 -5
21 -25 12 -33 36 -15 47 5 3 23 -1 39 -9 27 -14 30 -14 42 5 10 14 20 18 32
14 23 -9 22 -18 -9 -72 -35 -58 -64 -72 -100 -48 -19 12 -25 13 -22 3 2 -7 19
-17 36 -23 25 -7 31 -13 26 -28 -12 -38 14 -7 57 68 34 60 46 74 61 69 37 -12
15 6 -68 55 -85 51 -94 55 -94 47z"/>
<path d="M4000 925 c-15 -18 -5 -51 18 -60 14 -5 15 -4 5 6 -18 18 -16 46 5
58 15 9 15 10 1 11 -9 0 -22 -7 -29 -15z"/>
<path d="M1100 889 c0 -21 32 -49 56 -49 21 0 44 18 44 34 0 6 -5 5 -12 -2
-19 -19 -55 -14 -72 10 -12 16 -16 18 -16 7z"/>
<path d="M1580 873 c0 -5 11 -13 25 -20 27 -12 33 -5 13 15 -13 13 -38 16 -38
5z"/>
<path d="M4054 845 c-15 -11 -16 -14 -3 -15 8 0 33 -33 57 -77 23 -43 42 -72
42 -65 0 7 -17 45 -37 83 -32 59 -36 71 -23 79 13 9 13 10 -1 10 -8 0 -24 -7
-35 -15z"/>
<path d="M1500 822 c0 -5 9 -13 20 -18 20 -9 20 -9 1 -44 -11 -19 -24 -34 -30
-32 -17 3 -26 -27 -12 -41 9 -9 14 -9 20 2 8 12 14 12 40 1 42 -17 45 -24 26
-61 -9 -17 -14 -33 -11 -36 3 -3 22 29 41 71 24 49 42 76 53 76 12 0 13 3 4
12 -7 7 -13 28 -14 48 l-1 35 -4 -32 c-2 -18 -6 -33 -9 -33 -2 0 -31 14 -64
30 -33 17 -60 26 -60 22z m120 -74 c0 -12 -29 -68 -36 -68 -14 0 -64 32 -64
41 0 5 7 23 15 39 l15 30 35 -17 c19 -9 35 -21 35 -25z"/>
<path d="M3925 780 c-66 -32 -74 -37 -42 -33 34 5 37 4 37 -19 0 -13 -5 -29
-12 -36 -9 -9 -8 -15 8 -27 22 -17 70 -20 79 -5 11 17 33 11 40 -11 4 -11 9
-18 12 -15 3 3 -9 40 -27 82 -27 62 -31 77 -20 84 8 5 12 11 10 13 -3 3 -41
-12 -85 -33z m69 -41 c16 -39 16 -43 0 -60 -31 -34 -92 -18 -63 17 9 11 9 20
0 41 -10 21 -9 28 1 34 28 18 46 8 62 -32z"/>
<path d="M1743 703 c59 -27 66 -37 44 -66 -11 -17 -15 -17 -45 -2 -40 21 -68
16 -64 -10 6 -30 12 -32 28 -11 12 16 18 18 39 8 29 -13 31 -31 9 -73 -8 -17
-13 -33 -10 -36 5 -6 22 27 60 119 11 28 19 37 33 33 10 -3 -9 8 -42 24 -33
15 -71 31 -85 35 -14 3 1 -6 33 -21z"/>
<path d="M3775 715 c-25 -12 -27 -14 -9 -15 16 0 26 -11 37 -37 37 -92 48
-115 53 -110 3 3 -9 38 -26 78 -29 69 -30 74 -14 86 24 18 -1 16 -41 -2z"/>
<path d="M2032 674 c-12 -8 -22 -24 -22 -35 0 -11 -7 -19 -17 -19 -15 0 -16
-2 -3 -10 12 -8 11 -19 -8 -84 -31 -107 -26 -118 8 -16 23 67 32 85 47 83 17
-1 17 -1 1 11 -35 26 -14 66 33 66 15 0 42 -12 61 -27 l33 -26 -30 30 c-37 38
-74 48 -103 27z"/>
<path d="M3612 653 c-57 -19 -101 -37 -98 -40 2 -3 28 3 56 12 28 9 53 15 55
14 1 -2 10 -21 19 -42 15 -37 15 -39 -9 -63 -30 -30 -57 -23 -53 15 2 15 13
30 28 38 23 12 23 13 4 13 -24 0 -54 -29 -54 -53 0 -9 11 -24 25 -33 23 -15
27 -15 52 1 15 11 28 14 30 8 2 -6 10 -19 18 -29 13 -16 13 -13 0 25 -14 40
-14 47 1 68 23 37 49 26 48 -20 -1 -20 3 -37 7 -37 16 0 10 67 -7 81 -13 11
-21 11 -44 -3 -27 -15 -28 -15 -39 9 -12 26 -7 43 12 43 15 1 76 28 62 28 -5
0 -56 -15 -113 -35z"/>
<path d="M3095 623 c-32 -8 -55 -34 -54 -62 2 -24 2 -24 6 -3 6 31 43 53 105
62 l53 8 -45 0 c-25 0 -54 -3 -65 -5z"/>
<path d="M3218 613 c7 -3 16 -2 19 1 4 3 -2 6 -13 5 -11 0 -14 -3 -6 -6z"/>
<path d="M2418 599 c-11 -6 -18 -22 -18 -39 0 -22 -5 -30 -17 -30 -16 0 -16
-1 0 -13 15 -10 16 -19 7 -66 -5 -29 -10 -68 -9 -85 1 -28 2 -28 9 9 4 22 11
61 14 88 5 35 12 47 24 47 16 1 16 1 0 11 -21 12 -23 40 -6 57 7 7 30 12 53
12 31 0 50 -8 80 -32 34 -27 36 -28 16 -5 -44 48 -113 70 -153 46z"/>
<path d="M2090 581 c8 -6 23 -11 32 -11 33 0 68 -19 62 -34 -4 -10 -20 -14
-52 -13 l-47 2 0 -40 c-1 -22 -4 -45 -8 -52 -12 -19 14 -62 50 -84 19 -12 37
-19 40 -15 3 3 -3 9 -13 12 -32 12 -64 46 -64 70 0 27 30 47 63 42 29 -4 34
-34 7 -43 -11 -3 -18 -11 -15 -16 4 -5 14 -5 26 1 45 25 2 84 -52 73 -24 -5
-29 -2 -29 15 0 24 22 31 67 21 27 -6 32 -4 37 17 4 13 14 24 24 25 21 1 -57
26 -107 35 -27 4 -32 3 -21 -5z"/>
<path d="M3302 569 c-4 -4 -45 -14 -92 -23 -46 -9 -86 -19 -89 -21 -8 -9 24
-5 118 15 59 13 98 17 104 11 14 -14 1 -41 -19 -41 -9 0 -30 -6 -47 -14 -18
-8 -51 -20 -74 -26 -44 -11 -54 -28 -30 -49 16 -13 28 -5 20 15 -3 8 5 18 22
24 34 13 31 14 45 -20 12 -30 53 -64 64 -53 3 4 -8 14 -24 24 -44 27 -41 64 5
79 19 6 39 9 44 6 5 -3 12 -26 15 -51 4 -24 12 -48 18 -51 7 -5 9 -2 6 7 -3 8
-11 47 -18 87 -11 62 -11 75 0 82 10 6 1 8 -23 7 -21 -1 -41 -5 -45 -8z"/>
<path d="M3033 519 c-16 -7 -16 -8 -1 -8 18 -1 23 -18 33 -113 4 -32 10 -58
14 -58 4 0 2 37 -3 82 -7 61 -6 83 2 86 7 2 12 7 12 11 0 9 -34 9 -57 0z"/>
<path d="M2476 508 c3 -4 14 -8 25 -8 28 0 27 -60 -1 -67 -16 -4 -19 -11 -14
-27 9 -27 53 -86 65 -86 16 0 10 11 -22 37 -40 34 -24 55 38 46 41 -5 42 -7
45 -47 2 -29 6 -17 12 47 7 69 12 87 24 87 10 0 12 3 7 9 -13 11 -186 20 -179
9z m122 -14 c17 -5 22 -14 22 -40 0 -40 -11 -48 -56 -40 -32 7 -34 9 -34 46 0
35 3 40 23 40 12 0 32 -3 45 -6z"/>
<path d="M2717 503 c-13 -12 -7 -40 13 -58 11 -10 17 -22 14 -27 -3 -5 2 -20
10 -33 19 -29 60 -33 88 -9 14 13 21 14 32 5 8 -7 30 -11 48 -9 29 3 34 0 40
-27 4 -16 5 9 3 57 -3 75 -1 89 13 97 12 8 -9 10 -75 11 -62 0 -93 -4 -93 -11
0 -8 23 -10 70 -7 l70 4 0 -46 c0 -25 -5 -51 -12 -58 -17 -17 -53 -15 -69 4
-11 14 -11 18 4 29 9 7 17 23 16 36 0 23 -1 23 -9 3 -4 -12 -16 -24 -25 -28
-9 -3 -15 -12 -12 -20 8 -20 -27 -48 -55 -44 -31 4 -37 44 -9 53 31 9 25 22
-7 17 -37 -5 -61 20 -41 44 7 8 21 13 31 11 10 -3 16 -1 12 4 -6 10 -48 12
-57 2z"/>
</g>
</svg>
